<svg xmlns="http://www.w3.org/2000/svg" width="840" height="420" viewBox="0 0 840 420"><rect width="100%" height="100%" fill="#fffdf8" rx="20"/><text x="84" y="30" font-family="Source Sans 3, sans-serif" font-size="24" font-weight="700" fill="#1c1d21">Structural Discovery demo improvements</text><line x1="84" x2="84" y1="56" y2="324" stroke="#1c1d21"/><line x1="84" x2="800" y1="324" y2="324" stroke="#1c1d21"/><text x="22" y="210" transform="rotate(-90 22 210)" text-anchor="middle" font-size="13" fill="#5c605d">diagnostic metric</text><rect x="116.22" y="257.00" width="50.12" height="67.00" rx="8" fill="#a63229"/><rect x="180.66" y="324.00" width="50.12" height="0.00" rx="8" fill="#356c4a"/><text x="166.34" y="342" text-anchor="middle" font-size="12" fill="#5c605d">periodic_modal_repair</text><text x="141.28" y="249.00" text-anchor="middle" font-size="11" fill="#1c1d21">0.50</text><text x="205.72" y="316.00" text-anchor="middle" font-size="11" fill="#1c1d21">0.00</text><rect x="295.22" y="56.00" width="50.12" height="268.00" rx="8" fill="#a63229"/><rect x="359.66" y="324.00" width="50.12" height="0.00" rx="8" fill="#356c4a"/><text x="345.34" y="342" text-anchor="middle" font-size="12" fill="#5c605d">control_history_repair</text><text x="320.28" y="48.00" text-anchor="middle" font-size="11" fill="#1c1d21">2.00</text><text x="384.72" y="316.00" text-anchor="middle" font-size="11" fill="#1c1d21">0.00</text><rect x="474.22" y="190.00" width="50.12" height="134.00" rx="8" fill="#a63229"/><rect x="538.66" y="324.00" width="50.12" height="0.00" rx="8" fill="#356c4a"/><text x="524.34" y="342" text-anchor="middle" font-size="12" fill="#5c605d">weaker_vs_stronger_split</text><text x="499.28" y="182.00" text-anchor="middle" font-size="11" fill="#1c1d21">1.00</text><text x="563.72" y="316.00" text-anchor="middle" font-size="11" fill="#1c1d21">0.00</text><rect x="653.22" y="190.00" width="50.12" height="134.00" rx="8" fill="#a63229"/><rect x="717.66" y="324.00" width="50.12" height="0.00" rx="8" fill="#356c4a"/><text x="703.34" y="342" text-anchor="middle" font-size="12" fill="#5c605d">restricted_linear_measurement_repair</text><text x="678.28" y="182.00" text-anchor="middle" font-size="11" fill="#1c1d21">1.00</text><text x="742.72" y="316.00" text-anchor="middle" font-size="11" fill="#1c1d21">0.00</text><rect x="620" y="70" width="16" height="16" rx="4" fill="#a63229"/><text x="644" y="83" font-size="12" fill="#1c1d21">before</text><rect x="620" y="96" width="16" height="16" rx="4" fill="#356c4a"/><text x="644" y="109" font-size="12" fill="#1c1d21">after</text></svg>