<svg xmlns="http://www.w3.org/2000/svg" width="840" height="420" viewBox="0 0 840 420"><rect width="100%" height="100%" fill="#fffdf8" rx="20"/><text x="84" y="30" font-family="Source Sans 3, sans-serif" font-size="24" font-weight="700" fill="#1c1d21">Structural Discovery demo improvements</text><line x1="84" x2="84" y1="56" y2="324" stroke="#1c1d21"/><line x1="84" x2="800" y1="324" y2="324" stroke="#1c1d21"/><text x="22" y="210" transform="rotate(-90 22 210)" text-anchor="middle" font-size="13" fill="#5c605d">diagnostic metric</text><rect x="109.78" y="257.00" width="40.10" height="67.00" rx="8" fill="#a63229"/><rect x="161.33" y="324.00" width="40.10" height="0.00" rx="8" fill="#356c4a"/><text x="149.87" y="342" text-anchor="middle" font-size="12" fill="#5c605d">periodic_modal_repair</text><text x="129.82" y="249.00" text-anchor="middle" font-size="11" fill="#1c1d21">0.50</text><text x="181.38" y="316.00" text-anchor="middle" font-size="11" fill="#1c1d21">0.00</text><rect x="252.98" y="56.00" width="40.10" height="268.00" rx="8" fill="#a63229"/><rect x="304.53" y="324.00" width="40.10" height="0.00" rx="8" fill="#356c4a"/><text x="293.07" y="342" text-anchor="middle" font-size="12" fill="#5c605d">control_history_repair</text><text x="273.02" y="48.00" text-anchor="middle" font-size="11" fill="#1c1d21">2.00</text><text x="324.58" y="316.00" text-anchor="middle" font-size="11" fill="#1c1d21">0.00</text><rect x="396.18" y="190.00" width="40.10" height="134.00" rx="8" fill="#a63229"/><rect x="447.73" y="324.00" width="40.10" height="0.00" rx="8" fill="#356c4a"/><text x="436.27" y="342" text-anchor="middle" font-size="12" fill="#5c605d">weaker_vs_stronger_split</text><text x="416.22" y="182.00" text-anchor="middle" font-size="11" fill="#1c1d21">1.00</text><text x="467.78" y="316.00" text-anchor="middle" font-size="11" fill="#1c1d21">0.00</text><rect x="539.38" y="316.08" width="40.10" height="7.92" rx="8" fill="#a63229"/><rect x="590.93" y="324.00" width="40.10" height="0.00" rx="8" fill="#356c4a"/><text x="579.47" y="342" text-anchor="middle" font-size="12" fill="#5c605d">boundary_architecture_repair</text><text x="559.42" y="308.08" text-anchor="middle" font-size="11" fill="#1c1d21">0.06</text><text x="610.98" y="316.00" text-anchor="middle" font-size="11" fill="#1c1d21">0.00</text><rect x="682.58" y="190.00" width="40.10" height="134.00" rx="8" fill="#a63229"/><rect x="734.13" y="324.00" width="40.10" height="0.00" rx="8" fill="#356c4a"/><text x="722.67" y="342" text-anchor="middle" font-size="12" fill="#5c605d">restricted_linear_measurement_repair</text><text x="702.62" y="182.00" text-anchor="middle" font-size="11" fill="#1c1d21">1.00</text><text x="754.18" y="316.00" text-anchor="middle" font-size="11" fill="#1c1d21">0.00</text><rect x="620" y="70" width="16" height="16" rx="4" fill="#a63229"/><text x="644" y="83" font-size="12" fill="#1c1d21">before</text><rect x="620" y="96" width="16" height="16" rx="4" fill="#356c4a"/><text x="644" y="109" font-size="12" fill="#1c1d21">after</text></svg>