<?xml version="1.0" encoding="utf-8" standalone="no"?>
<!DOCTYPE svg PUBLIC "-//W3C//DTD SVG 1.1//EN"
  "http://www.w3.org/Graphics/SVG/1.1/DTD/svg11.dtd">
<svg xmlns:xlink="http://www.w3.org/1999/xlink" width="656.39952pt" height="368.285166pt" viewBox="0 0 656.39952 368.285166" xmlns="http://www.w3.org/2000/svg" version="1.1">
 <metadata>
  <rdf:RDF xmlns:dc="http://purl.org/dc/elements/1.1/" xmlns:cc="http://creativecommons.org/ns#" xmlns:rdf="http://www.w3.org/1999/02/22-rdf-syntax-ns#">
   <cc:Work>
    <dc:type rdf:resource="http://purl.org/dc/dcmitype/StillImage"/>
    <dc:date>2026-04-16T17:40:48.585045</dc:date>
    <dc:format>image/svg+xml</dc:format>
    <dc:creator>
     <cc:Agent>
      <dc:title>Matplotlib v3.10.8, https://matplotlib.org/</dc:title>
     </cc:Agent>
    </dc:creator>
   </cc:Work>
  </rdf:RDF>
 </metadata>
 <defs>
  <style type="text/css">*{stroke-linejoin: round; stroke-linecap: butt}</style>
 </defs>
 <g id="figure_1">
  <g id="patch_1">
   <path d="M 0 368.285166 
L 656.39952 368.285166 
L 656.39952 0 
L 0 0 
z
" style="fill: #ffffff"/>
  </g>
  <g id="axes_1">
   <g id="line2d_1">
    <path d="M 107.512425 319.043298 
L 508.762125 290.327958 
" clip-path="url(#p85ce1d8e15)" style="fill: none; stroke: #1f77b4; stroke-opacity: 0.9; stroke-width: 1.8; stroke-linecap: square"/>
   </g>
   <g id="line2d_2">
    <path d="M 107.512425 285.542069 
L 508.762125 290.327958 
" clip-path="url(#p85ce1d8e15)" style="fill: none; stroke: #1f77b4; stroke-opacity: 0.9; stroke-width: 1.8; stroke-linecap: square"/>
   </g>
   <g id="line2d_3">
    <path d="M 107.512425 252.040839 
L 508.762125 213.75372 
" clip-path="url(#p85ce1d8e15)" style="fill: none; stroke: #d62728; stroke-opacity: 0.9; stroke-width: 1.8; stroke-linecap: square"/>
   </g>
   <g id="line2d_4">
    <path d="M 107.512425 218.53961 
L 508.762125 213.75372 
" clip-path="url(#p85ce1d8e15)" style="fill: none; stroke: #d62728; stroke-opacity: 0.9; stroke-width: 1.8; stroke-linecap: square"/>
   </g>
   <g id="line2d_5">
    <path d="M 107.512425 185.038381 
L 508.762125 137.179482 
" clip-path="url(#p85ce1d8e15)" style="fill: none; stroke: #e377c2; stroke-opacity: 0.9; stroke-width: 1.8; stroke-linecap: square"/>
   </g>
   <g id="line2d_6">
    <path d="M 107.512425 151.537152 
L 508.762125 137.179482 
" clip-path="url(#p85ce1d8e15)" style="fill: none; stroke: #e377c2; stroke-opacity: 0.9; stroke-width: 1.8; stroke-linecap: square"/>
   </g>
   <g id="line2d_7">
    <path d="M 107.512425 118.035923 
L 508.762125 60.605244 
" clip-path="url(#p85ce1d8e15)" style="fill: none; stroke: #17becf; stroke-opacity: 0.9; stroke-width: 1.8; stroke-linecap: square"/>
   </g>
   <g id="line2d_8">
    <path d="M 107.512425 84.534693 
L 508.762125 60.605244 
" clip-path="url(#p85ce1d8e15)" style="fill: none; stroke: #17becf; stroke-opacity: 0.9; stroke-width: 1.8; stroke-linecap: square"/>
   </g>
   <g id="PathCollection_1">
    <defs>
     <path id="mff532983bd" d="M 0 3.872983 
C 1.027127 3.872983 2.012324 3.464901 2.738613 2.738613 
C 3.464901 2.012324 3.872983 1.027127 3.872983 0 
C 3.872983 -1.027127 3.464901 -2.012324 2.738613 -2.738613 
C 2.012324 -3.464901 1.027127 -3.872983 0 -3.872983 
C -1.027127 -3.872983 -2.012324 -3.464901 -2.738613 -2.738613 
C -3.464901 -2.012324 -3.872983 -1.027127 -3.872983 0 
C -3.872983 1.027127 -3.464901 2.012324 -2.738613 2.738613 
C -2.012324 3.464901 -1.027127 3.872983 0 3.872983 
z
" style="stroke: #1f77b4"/>
    </defs>
    <g clip-path="url(#p85ce1d8e15)">
     <use xlink:href="#mff532983bd" x="107.512425" y="319.043298" style="fill: #1f77b4; stroke: #1f77b4"/>
    </g>
   </g>
   <g id="text_1">
    <!-- s0:(0, 0, 0) -->
    <g transform="translate(55.852431 321.250798) scale(0.08 -0.08)">
     <defs>
      <path id="DejaVuSans-73" d="M 2834 3397 
L 2834 2853 
Q 2591 2978 2328 3040 
Q 2066 3103 1784 3103 
Q 1356 3103 1142 2972 
Q 928 2841 928 2578 
Q 928 2378 1081 2264 
Q 1234 2150 1697 2047 
L 1894 2003 
Q 2506 1872 2764 1633 
Q 3022 1394 3022 966 
Q 3022 478 2636 193 
Q 2250 -91 1575 -91 
Q 1294 -91 989 -36 
Q 684 19 347 128 
L 347 722 
Q 666 556 975 473 
Q 1284 391 1588 391 
Q 1994 391 2212 530 
Q 2431 669 2431 922 
Q 2431 1156 2273 1281 
Q 2116 1406 1581 1522 
L 1381 1569 
Q 847 1681 609 1914 
Q 372 2147 372 2553 
Q 372 3047 722 3315 
Q 1072 3584 1716 3584 
Q 2034 3584 2315 3537 
Q 2597 3491 2834 3397 
z
" transform="scale(0.015625)"/>
      <path id="DejaVuSans-30" d="M 2034 4250 
Q 1547 4250 1301 3770 
Q 1056 3291 1056 2328 
Q 1056 1369 1301 889 
Q 1547 409 2034 409 
Q 2525 409 2770 889 
Q 3016 1369 3016 2328 
Q 3016 3291 2770 3770 
Q 2525 4250 2034 4250 
z
M 2034 4750 
Q 2819 4750 3233 4129 
Q 3647 3509 3647 2328 
Q 3647 1150 3233 529 
Q 2819 -91 2034 -91 
Q 1250 -91 836 529 
Q 422 1150 422 2328 
Q 422 3509 836 4129 
Q 1250 4750 2034 4750 
z
" transform="scale(0.015625)"/>
      <path id="DejaVuSans-3a" d="M 750 794 
L 1409 794 
L 1409 0 
L 750 0 
L 750 794 
z
M 750 3309 
L 1409 3309 
L 1409 2516 
L 750 2516 
L 750 3309 
z
" transform="scale(0.015625)"/>
      <path id="DejaVuSans-28" d="M 1984 4856 
Q 1566 4138 1362 3434 
Q 1159 2731 1159 2009 
Q 1159 1288 1364 580 
Q 1569 -128 1984 -844 
L 1484 -844 
Q 1016 -109 783 600 
Q 550 1309 550 2009 
Q 550 2706 781 3412 
Q 1013 4119 1484 4856 
L 1984 4856 
z
" transform="scale(0.015625)"/>
      <path id="DejaVuSans-2c" d="M 750 794 
L 1409 794 
L 1409 256 
L 897 -744 
L 494 -744 
L 750 256 
L 750 794 
z
" transform="scale(0.015625)"/>
      <path id="DejaVuSans-20" transform="scale(0.015625)"/>
      <path id="DejaVuSans-29" d="M 513 4856 
L 1013 4856 
Q 1481 4119 1714 3412 
Q 1947 2706 1947 2009 
Q 1947 1309 1714 600 
Q 1481 -109 1013 -844 
L 513 -844 
Q 928 -128 1133 580 
Q 1338 1288 1338 2009 
Q 1338 2731 1133 3434 
Q 928 4138 513 4856 
z
" transform="scale(0.015625)"/>
     </defs>
     <use xlink:href="#DejaVuSans-73"/>
     <use xlink:href="#DejaVuSans-30" transform="translate(52.099609 0)"/>
     <use xlink:href="#DejaVuSans-3a" transform="translate(115.722656 0)"/>
     <use xlink:href="#DejaVuSans-28" transform="translate(149.414062 0)"/>
     <use xlink:href="#DejaVuSans-30" transform="translate(188.427734 0)"/>
     <use xlink:href="#DejaVuSans-2c" transform="translate(252.050781 0)"/>
     <use xlink:href="#DejaVuSans-20" transform="translate(283.837891 0)"/>
     <use xlink:href="#DejaVuSans-30" transform="translate(315.625 0)"/>
     <use xlink:href="#DejaVuSans-2c" transform="translate(379.248047 0)"/>
     <use xlink:href="#DejaVuSans-20" transform="translate(411.035156 0)"/>
     <use xlink:href="#DejaVuSans-30" transform="translate(442.822266 0)"/>
     <use xlink:href="#DejaVuSans-29" transform="translate(506.445312 0)"/>
    </g>
   </g>
   <g id="PathCollection_2">
    <g clip-path="url(#p85ce1d8e15)">
     <use xlink:href="#mff532983bd" x="107.512425" y="285.542069" style="fill: #1f77b4; stroke: #1f77b4"/>
    </g>
   </g>
   <g id="text_2">
    <!-- s1:(0, 0, 1) -->
    <g transform="translate(55.852431 287.749569) scale(0.08 -0.08)">
     <defs>
      <path id="DejaVuSans-31" d="M 794 531 
L 1825 531 
L 1825 4091 
L 703 3866 
L 703 4441 
L 1819 4666 
L 2450 4666 
L 2450 531 
L 3481 531 
L 3481 0 
L 794 0 
L 794 531 
z
" transform="scale(0.015625)"/>
     </defs>
     <use xlink:href="#DejaVuSans-73"/>
     <use xlink:href="#DejaVuSans-31" transform="translate(52.099609 0)"/>
     <use xlink:href="#DejaVuSans-3a" transform="translate(115.722656 0)"/>
     <use xlink:href="#DejaVuSans-28" transform="translate(149.414062 0)"/>
     <use xlink:href="#DejaVuSans-30" transform="translate(188.427734 0)"/>
     <use xlink:href="#DejaVuSans-2c" transform="translate(252.050781 0)"/>
     <use xlink:href="#DejaVuSans-20" transform="translate(283.837891 0)"/>
     <use xlink:href="#DejaVuSans-30" transform="translate(315.625 0)"/>
     <use xlink:href="#DejaVuSans-2c" transform="translate(379.248047 0)"/>
     <use xlink:href="#DejaVuSans-20" transform="translate(411.035156 0)"/>
     <use xlink:href="#DejaVuSans-31" transform="translate(442.822266 0)"/>
     <use xlink:href="#DejaVuSans-29" transform="translate(506.445312 0)"/>
    </g>
   </g>
   <g id="PathCollection_3">
    <defs>
     <path id="mf18206252e" d="M 0 3.872983 
C 1.027127 3.872983 2.012324 3.464901 2.738613 2.738613 
C 3.464901 2.012324 3.872983 1.027127 3.872983 0 
C 3.872983 -1.027127 3.464901 -2.012324 2.738613 -2.738613 
C 2.012324 -3.464901 1.027127 -3.872983 0 -3.872983 
C -1.027127 -3.872983 -2.012324 -3.464901 -2.738613 -2.738613 
C -3.464901 -2.012324 -3.872983 -1.027127 -3.872983 0 
C -3.872983 1.027127 -3.464901 2.012324 -2.738613 2.738613 
C -2.012324 3.464901 -1.027127 3.872983 0 3.872983 
z
" style="stroke: #d62728"/>
    </defs>
    <g clip-path="url(#p85ce1d8e15)">
     <use xlink:href="#mf18206252e" x="107.512425" y="252.040839" style="fill: #d62728; stroke: #d62728"/>
    </g>
   </g>
   <g id="text_3">
    <!-- s2:(0, 1, 0) -->
    <g transform="translate(55.852431 254.248339) scale(0.08 -0.08)">
     <defs>
      <path id="DejaVuSans-32" d="M 1228 531 
L 3431 531 
L 3431 0 
L 469 0 
L 469 531 
Q 828 903 1448 1529 
Q 2069 2156 2228 2338 
Q 2531 2678 2651 2914 
Q 2772 3150 2772 3378 
Q 2772 3750 2511 3984 
Q 2250 4219 1831 4219 
Q 1534 4219 1204 4116 
Q 875 4013 500 3803 
L 500 4441 
Q 881 4594 1212 4672 
Q 1544 4750 1819 4750 
Q 2544 4750 2975 4387 
Q 3406 4025 3406 3419 
Q 3406 3131 3298 2873 
Q 3191 2616 2906 2266 
Q 2828 2175 2409 1742 
Q 1991 1309 1228 531 
z
" transform="scale(0.015625)"/>
     </defs>
     <use xlink:href="#DejaVuSans-73"/>
     <use xlink:href="#DejaVuSans-32" transform="translate(52.099609 0)"/>
     <use xlink:href="#DejaVuSans-3a" transform="translate(115.722656 0)"/>
     <use xlink:href="#DejaVuSans-28" transform="translate(149.414062 0)"/>
     <use xlink:href="#DejaVuSans-30" transform="translate(188.427734 0)"/>
     <use xlink:href="#DejaVuSans-2c" transform="translate(252.050781 0)"/>
     <use xlink:href="#DejaVuSans-20" transform="translate(283.837891 0)"/>
     <use xlink:href="#DejaVuSans-31" transform="translate(315.625 0)"/>
     <use xlink:href="#DejaVuSans-2c" transform="translate(379.248047 0)"/>
     <use xlink:href="#DejaVuSans-20" transform="translate(411.035156 0)"/>
     <use xlink:href="#DejaVuSans-30" transform="translate(442.822266 0)"/>
     <use xlink:href="#DejaVuSans-29" transform="translate(506.445312 0)"/>
    </g>
   </g>
   <g id="PathCollection_4">
    <g clip-path="url(#p85ce1d8e15)">
     <use xlink:href="#mf18206252e" x="107.512425" y="218.53961" style="fill: #d62728; stroke: #d62728"/>
    </g>
   </g>
   <g id="text_4">
    <!-- s3:(0, 1, 1) -->
    <g transform="translate(55.852431 220.74711) scale(0.08 -0.08)">
     <defs>
      <path id="DejaVuSans-33" d="M 2597 2516 
Q 3050 2419 3304 2112 
Q 3559 1806 3559 1356 
Q 3559 666 3084 287 
Q 2609 -91 1734 -91 
Q 1441 -91 1130 -33 
Q 819 25 488 141 
L 488 750 
Q 750 597 1062 519 
Q 1375 441 1716 441 
Q 2309 441 2620 675 
Q 2931 909 2931 1356 
Q 2931 1769 2642 2001 
Q 2353 2234 1838 2234 
L 1294 2234 
L 1294 2753 
L 1863 2753 
Q 2328 2753 2575 2939 
Q 2822 3125 2822 3475 
Q 2822 3834 2567 4026 
Q 2313 4219 1838 4219 
Q 1578 4219 1281 4162 
Q 984 4106 628 3988 
L 628 4550 
Q 988 4650 1302 4700 
Q 1616 4750 1894 4750 
Q 2613 4750 3031 4423 
Q 3450 4097 3450 3541 
Q 3450 3153 3228 2886 
Q 3006 2619 2597 2516 
z
" transform="scale(0.015625)"/>
     </defs>
     <use xlink:href="#DejaVuSans-73"/>
     <use xlink:href="#DejaVuSans-33" transform="translate(52.099609 0)"/>
     <use xlink:href="#DejaVuSans-3a" transform="translate(115.722656 0)"/>
     <use xlink:href="#DejaVuSans-28" transform="translate(149.414062 0)"/>
     <use xlink:href="#DejaVuSans-30" transform="translate(188.427734 0)"/>
     <use xlink:href="#DejaVuSans-2c" transform="translate(252.050781 0)"/>
     <use xlink:href="#DejaVuSans-20" transform="translate(283.837891 0)"/>
     <use xlink:href="#DejaVuSans-31" transform="translate(315.625 0)"/>
     <use xlink:href="#DejaVuSans-2c" transform="translate(379.248047 0)"/>
     <use xlink:href="#DejaVuSans-20" transform="translate(411.035156 0)"/>
     <use xlink:href="#DejaVuSans-31" transform="translate(442.822266 0)"/>
     <use xlink:href="#DejaVuSans-29" transform="translate(506.445312 0)"/>
    </g>
   </g>
   <g id="PathCollection_5">
    <defs>
     <path id="m13d675b3ff" d="M 0 3.872983 
C 1.027127 3.872983 2.012324 3.464901 2.738613 2.738613 
C 3.464901 2.012324 3.872983 1.027127 3.872983 0 
C 3.872983 -1.027127 3.464901 -2.012324 2.738613 -2.738613 
C 2.012324 -3.464901 1.027127 -3.872983 0 -3.872983 
C -1.027127 -3.872983 -2.012324 -3.464901 -2.738613 -2.738613 
C -3.464901 -2.012324 -3.872983 -1.027127 -3.872983 0 
C -3.872983 1.027127 -3.464901 2.012324 -2.738613 2.738613 
C -2.012324 3.464901 -1.027127 3.872983 0 3.872983 
z
" style="stroke: #e377c2"/>
    </defs>
    <g clip-path="url(#p85ce1d8e15)">
     <use xlink:href="#m13d675b3ff" x="107.512425" y="185.038381" style="fill: #e377c2; stroke: #e377c2"/>
    </g>
   </g>
   <g id="text_5">
    <!-- s4:(1, 0, 0) -->
    <g transform="translate(55.852431 187.245881) scale(0.08 -0.08)">
     <defs>
      <path id="DejaVuSans-34" d="M 2419 4116 
L 825 1625 
L 2419 1625 
L 2419 4116 
z
M 2253 4666 
L 3047 4666 
L 3047 1625 
L 3713 1625 
L 3713 1100 
L 3047 1100 
L 3047 0 
L 2419 0 
L 2419 1100 
L 313 1100 
L 313 1709 
L 2253 4666 
z
" transform="scale(0.015625)"/>
     </defs>
     <use xlink:href="#DejaVuSans-73"/>
     <use xlink:href="#DejaVuSans-34" transform="translate(52.099609 0)"/>
     <use xlink:href="#DejaVuSans-3a" transform="translate(115.722656 0)"/>
     <use xlink:href="#DejaVuSans-28" transform="translate(149.414062 0)"/>
     <use xlink:href="#DejaVuSans-31" transform="translate(188.427734 0)"/>
     <use xlink:href="#DejaVuSans-2c" transform="translate(252.050781 0)"/>
     <use xlink:href="#DejaVuSans-20" transform="translate(283.837891 0)"/>
     <use xlink:href="#DejaVuSans-30" transform="translate(315.625 0)"/>
     <use xlink:href="#DejaVuSans-2c" transform="translate(379.248047 0)"/>
     <use xlink:href="#DejaVuSans-20" transform="translate(411.035156 0)"/>
     <use xlink:href="#DejaVuSans-30" transform="translate(442.822266 0)"/>
     <use xlink:href="#DejaVuSans-29" transform="translate(506.445312 0)"/>
    </g>
   </g>
   <g id="PathCollection_6">
    <g clip-path="url(#p85ce1d8e15)">
     <use xlink:href="#m13d675b3ff" x="107.512425" y="151.537152" style="fill: #e377c2; stroke: #e377c2"/>
    </g>
   </g>
   <g id="text_6">
    <!-- s5:(1, 0, 1) -->
    <g transform="translate(55.852431 153.744652) scale(0.08 -0.08)">
     <defs>
      <path id="DejaVuSans-35" d="M 691 4666 
L 3169 4666 
L 3169 4134 
L 1269 4134 
L 1269 2991 
Q 1406 3038 1543 3061 
Q 1681 3084 1819 3084 
Q 2600 3084 3056 2656 
Q 3513 2228 3513 1497 
Q 3513 744 3044 326 
Q 2575 -91 1722 -91 
Q 1428 -91 1123 -41 
Q 819 9 494 109 
L 494 744 
Q 775 591 1075 516 
Q 1375 441 1709 441 
Q 2250 441 2565 725 
Q 2881 1009 2881 1497 
Q 2881 1984 2565 2268 
Q 2250 2553 1709 2553 
Q 1456 2553 1204 2497 
Q 953 2441 691 2322 
L 691 4666 
z
" transform="scale(0.015625)"/>
     </defs>
     <use xlink:href="#DejaVuSans-73"/>
     <use xlink:href="#DejaVuSans-35" transform="translate(52.099609 0)"/>
     <use xlink:href="#DejaVuSans-3a" transform="translate(115.722656 0)"/>
     <use xlink:href="#DejaVuSans-28" transform="translate(149.414062 0)"/>
     <use xlink:href="#DejaVuSans-31" transform="translate(188.427734 0)"/>
     <use xlink:href="#DejaVuSans-2c" transform="translate(252.050781 0)"/>
     <use xlink:href="#DejaVuSans-20" transform="translate(283.837891 0)"/>
     <use xlink:href="#DejaVuSans-30" transform="translate(315.625 0)"/>
     <use xlink:href="#DejaVuSans-2c" transform="translate(379.248047 0)"/>
     <use xlink:href="#DejaVuSans-20" transform="translate(411.035156 0)"/>
     <use xlink:href="#DejaVuSans-31" transform="translate(442.822266 0)"/>
     <use xlink:href="#DejaVuSans-29" transform="translate(506.445312 0)"/>
    </g>
   </g>
   <g id="PathCollection_7">
    <defs>
     <path id="m372da100eb" d="M 0 3.872983 
C 1.027127 3.872983 2.012324 3.464901 2.738613 2.738613 
C 3.464901 2.012324 3.872983 1.027127 3.872983 0 
C 3.872983 -1.027127 3.464901 -2.012324 2.738613 -2.738613 
C 2.012324 -3.464901 1.027127 -3.872983 0 -3.872983 
C -1.027127 -3.872983 -2.012324 -3.464901 -2.738613 -2.738613 
C -3.464901 -2.012324 -3.872983 -1.027127 -3.872983 0 
C -3.872983 1.027127 -3.464901 2.012324 -2.738613 2.738613 
C -2.012324 3.464901 -1.027127 3.872983 0 3.872983 
z
" style="stroke: #17becf"/>
    </defs>
    <g clip-path="url(#p85ce1d8e15)">
     <use xlink:href="#m372da100eb" x="107.512425" y="118.035923" style="fill: #17becf; stroke: #17becf"/>
    </g>
   </g>
   <g id="text_7">
    <!-- s6:(1, 1, 0) -->
    <g transform="translate(55.852431 120.243423) scale(0.08 -0.08)">
     <defs>
      <path id="DejaVuSans-36" d="M 2113 2584 
Q 1688 2584 1439 2293 
Q 1191 2003 1191 1497 
Q 1191 994 1439 701 
Q 1688 409 2113 409 
Q 2538 409 2786 701 
Q 3034 994 3034 1497 
Q 3034 2003 2786 2293 
Q 2538 2584 2113 2584 
z
M 3366 4563 
L 3366 3988 
Q 3128 4100 2886 4159 
Q 2644 4219 2406 4219 
Q 1781 4219 1451 3797 
Q 1122 3375 1075 2522 
Q 1259 2794 1537 2939 
Q 1816 3084 2150 3084 
Q 2853 3084 3261 2657 
Q 3669 2231 3669 1497 
Q 3669 778 3244 343 
Q 2819 -91 2113 -91 
Q 1303 -91 875 529 
Q 447 1150 447 2328 
Q 447 3434 972 4092 
Q 1497 4750 2381 4750 
Q 2619 4750 2861 4703 
Q 3103 4656 3366 4563 
z
" transform="scale(0.015625)"/>
     </defs>
     <use xlink:href="#DejaVuSans-73"/>
     <use xlink:href="#DejaVuSans-36" transform="translate(52.099609 0)"/>
     <use xlink:href="#DejaVuSans-3a" transform="translate(115.722656 0)"/>
     <use xlink:href="#DejaVuSans-28" transform="translate(149.414062 0)"/>
     <use xlink:href="#DejaVuSans-31" transform="translate(188.427734 0)"/>
     <use xlink:href="#DejaVuSans-2c" transform="translate(252.050781 0)"/>
     <use xlink:href="#DejaVuSans-20" transform="translate(283.837891 0)"/>
     <use xlink:href="#DejaVuSans-31" transform="translate(315.625 0)"/>
     <use xlink:href="#DejaVuSans-2c" transform="translate(379.248047 0)"/>
     <use xlink:href="#DejaVuSans-20" transform="translate(411.035156 0)"/>
     <use xlink:href="#DejaVuSans-30" transform="translate(442.822266 0)"/>
     <use xlink:href="#DejaVuSans-29" transform="translate(506.445312 0)"/>
    </g>
   </g>
   <g id="PathCollection_8">
    <g clip-path="url(#p85ce1d8e15)">
     <use xlink:href="#m372da100eb" x="107.512425" y="84.534693" style="fill: #17becf; stroke: #17becf"/>
    </g>
   </g>
   <g id="text_8">
    <!-- s7:(1, 1, 1) -->
    <g transform="translate(55.852431 86.742193) scale(0.08 -0.08)">
     <defs>
      <path id="DejaVuSans-37" d="M 525 4666 
L 3525 4666 
L 3525 4397 
L 1831 0 
L 1172 0 
L 2766 4134 
L 525 4134 
L 525 4666 
z
" transform="scale(0.015625)"/>
     </defs>
     <use xlink:href="#DejaVuSans-73"/>
     <use xlink:href="#DejaVuSans-37" transform="translate(52.099609 0)"/>
     <use xlink:href="#DejaVuSans-3a" transform="translate(115.722656 0)"/>
     <use xlink:href="#DejaVuSans-28" transform="translate(149.414062 0)"/>
     <use xlink:href="#DejaVuSans-31" transform="translate(188.427734 0)"/>
     <use xlink:href="#DejaVuSans-2c" transform="translate(252.050781 0)"/>
     <use xlink:href="#DejaVuSans-20" transform="translate(283.837891 0)"/>
     <use xlink:href="#DejaVuSans-31" transform="translate(315.625 0)"/>
     <use xlink:href="#DejaVuSans-2c" transform="translate(379.248047 0)"/>
     <use xlink:href="#DejaVuSans-20" transform="translate(411.035156 0)"/>
     <use xlink:href="#DejaVuSans-31" transform="translate(442.822266 0)"/>
     <use xlink:href="#DejaVuSans-29" transform="translate(506.445312 0)"/>
    </g>
   </g>
   <g id="PathCollection_9">
    <defs>
     <path id="m5e19e0d522" d="M 0 4.330127 
C 1.148363 4.330127 2.249847 3.873878 3.061862 3.061862 
C 3.873878 2.249847 4.330127 1.148363 4.330127 0 
C 4.330127 -1.148363 3.873878 -2.249847 3.061862 -3.061862 
C 2.249847 -3.873878 1.148363 -4.330127 0 -4.330127 
C -1.148363 -4.330127 -2.249847 -3.873878 -3.061862 -3.061862 
C -3.873878 -2.249847 -4.330127 -1.148363 -4.330127 0 
C -4.330127 1.148363 -3.873878 2.249847 -3.061862 3.061862 
C -2.249847 3.873878 -1.148363 4.330127 0 4.330127 
z
" style="stroke: #2e5da8"/>
    </defs>
    <g clip-path="url(#p85ce1d8e15)">
     <use xlink:href="#m5e19e0d522" x="508.762125" y="290.327958" style="fill: #2e5da8; stroke: #2e5da8"/>
    </g>
   </g>
   <g id="text_9">
    <!-- M=(0, 0) -->
    <g transform="translate(516.787119 292.811396) scale(0.09 -0.09)">
     <defs>
      <path id="DejaVuSans-4d" d="M 628 4666 
L 1569 4666 
L 2759 1491 
L 3956 4666 
L 4897 4666 
L 4897 0 
L 4281 0 
L 4281 4097 
L 3078 897 
L 2444 897 
L 1241 4097 
L 1241 0 
L 628 0 
L 628 4666 
z
" transform="scale(0.015625)"/>
      <path id="DejaVuSans-3d" d="M 678 2906 
L 4684 2906 
L 4684 2381 
L 678 2381 
L 678 2906 
z
M 678 1631 
L 4684 1631 
L 4684 1100 
L 678 1100 
L 678 1631 
z
" transform="scale(0.015625)"/>
     </defs>
     <use xlink:href="#DejaVuSans-4d"/>
     <use xlink:href="#DejaVuSans-3d" transform="translate(86.279297 0)"/>
     <use xlink:href="#DejaVuSans-28" transform="translate(170.068359 0)"/>
     <use xlink:href="#DejaVuSans-30" transform="translate(209.082031 0)"/>
     <use xlink:href="#DejaVuSans-2c" transform="translate(272.705078 0)"/>
     <use xlink:href="#DejaVuSans-20" transform="translate(304.492188 0)"/>
     <use xlink:href="#DejaVuSans-30" transform="translate(336.279297 0)"/>
     <use xlink:href="#DejaVuSans-29" transform="translate(399.902344 0)"/>
    </g>
   </g>
   <g id="PathCollection_10">
    <g clip-path="url(#p85ce1d8e15)">
     <use xlink:href="#m5e19e0d522" x="508.762125" y="213.75372" style="fill: #2e5da8; stroke: #2e5da8"/>
    </g>
   </g>
   <g id="text_10">
    <!-- M=(0, 1) -->
    <g transform="translate(516.787119 216.237158) scale(0.09 -0.09)">
     <use xlink:href="#DejaVuSans-4d"/>
     <use xlink:href="#DejaVuSans-3d" transform="translate(86.279297 0)"/>
     <use xlink:href="#DejaVuSans-28" transform="translate(170.068359 0)"/>
     <use xlink:href="#DejaVuSans-30" transform="translate(209.082031 0)"/>
     <use xlink:href="#DejaVuSans-2c" transform="translate(272.705078 0)"/>
     <use xlink:href="#DejaVuSans-20" transform="translate(304.492188 0)"/>
     <use xlink:href="#DejaVuSans-31" transform="translate(336.279297 0)"/>
     <use xlink:href="#DejaVuSans-29" transform="translate(399.902344 0)"/>
    </g>
   </g>
   <g id="PathCollection_11">
    <g clip-path="url(#p85ce1d8e15)">
     <use xlink:href="#m5e19e0d522" x="508.762125" y="137.179482" style="fill: #2e5da8; stroke: #2e5da8"/>
    </g>
   </g>
   <g id="text_11">
    <!-- M=(1, 0) -->
    <g transform="translate(516.787119 139.66292) scale(0.09 -0.09)">
     <use xlink:href="#DejaVuSans-4d"/>
     <use xlink:href="#DejaVuSans-3d" transform="translate(86.279297 0)"/>
     <use xlink:href="#DejaVuSans-28" transform="translate(170.068359 0)"/>
     <use xlink:href="#DejaVuSans-31" transform="translate(209.082031 0)"/>
     <use xlink:href="#DejaVuSans-2c" transform="translate(272.705078 0)"/>
     <use xlink:href="#DejaVuSans-20" transform="translate(304.492188 0)"/>
     <use xlink:href="#DejaVuSans-30" transform="translate(336.279297 0)"/>
     <use xlink:href="#DejaVuSans-29" transform="translate(399.902344 0)"/>
    </g>
   </g>
   <g id="PathCollection_12">
    <g clip-path="url(#p85ce1d8e15)">
     <use xlink:href="#m5e19e0d522" x="508.762125" y="60.605244" style="fill: #2e5da8; stroke: #2e5da8"/>
    </g>
   </g>
   <g id="text_12">
    <!-- M=(1, 1) -->
    <g transform="translate(516.787119 63.088682) scale(0.09 -0.09)">
     <use xlink:href="#DejaVuSans-4d"/>
     <use xlink:href="#DejaVuSans-3d" transform="translate(86.279297 0)"/>
     <use xlink:href="#DejaVuSans-28" transform="translate(170.068359 0)"/>
     <use xlink:href="#DejaVuSans-31" transform="translate(209.082031 0)"/>
     <use xlink:href="#DejaVuSans-2c" transform="translate(272.705078 0)"/>
     <use xlink:href="#DejaVuSans-20" transform="translate(304.492188 0)"/>
     <use xlink:href="#DejaVuSans-31" transform="translate(336.279297 0)"/>
     <use xlink:href="#DejaVuSans-29" transform="translate(399.902344 0)"/>
    </g>
   </g>
   <g id="text_13">
    <!-- States -->
    <g transform="translate(20.03999 359.005478) scale(0.1 -0.1)">
     <defs>
      <path id="DejaVuSans-Bold-53" d="M 3834 4519 
L 3834 3531 
Q 3450 3703 3084 3790 
Q 2719 3878 2394 3878 
Q 1963 3878 1756 3759 
Q 1550 3641 1550 3391 
Q 1550 3203 1689 3098 
Q 1828 2994 2194 2919 
L 2706 2816 
Q 3484 2659 3812 2340 
Q 4141 2022 4141 1434 
Q 4141 663 3683 286 
Q 3225 -91 2284 -91 
Q 1841 -91 1394 -6 
Q 947 78 500 244 
L 500 1259 
Q 947 1022 1364 901 
Q 1781 781 2169 781 
Q 2563 781 2772 912 
Q 2981 1044 2981 1288 
Q 2981 1506 2839 1625 
Q 2697 1744 2272 1838 
L 1806 1941 
Q 1106 2091 782 2419 
Q 459 2747 459 3303 
Q 459 4000 909 4375 
Q 1359 4750 2203 4750 
Q 2588 4750 2994 4692 
Q 3400 4634 3834 4519 
z
" transform="scale(0.015625)"/>
      <path id="DejaVuSans-Bold-74" d="M 1759 4494 
L 1759 3500 
L 2913 3500 
L 2913 2700 
L 1759 2700 
L 1759 1216 
Q 1759 972 1856 886 
Q 1953 800 2241 800 
L 2816 800 
L 2816 0 
L 1856 0 
Q 1194 0 917 276 
Q 641 553 641 1216 
L 641 2700 
L 84 2700 
L 84 3500 
L 641 3500 
L 641 4494 
L 1759 4494 
z
" transform="scale(0.015625)"/>
      <path id="DejaVuSans-Bold-61" d="M 2106 1575 
Q 1756 1575 1579 1456 
Q 1403 1338 1403 1106 
Q 1403 894 1545 773 
Q 1688 653 1941 653 
Q 2256 653 2472 879 
Q 2688 1106 2688 1447 
L 2688 1575 
L 2106 1575 
z
M 3816 1997 
L 3816 0 
L 2688 0 
L 2688 519 
Q 2463 200 2181 54 
Q 1900 -91 1497 -91 
Q 953 -91 614 226 
Q 275 544 275 1050 
Q 275 1666 698 1953 
Q 1122 2241 2028 2241 
L 2688 2241 
L 2688 2328 
Q 2688 2594 2478 2717 
Q 2269 2841 1825 2841 
Q 1466 2841 1156 2769 
Q 847 2697 581 2553 
L 581 3406 
Q 941 3494 1303 3539 
Q 1666 3584 2028 3584 
Q 2975 3584 3395 3211 
Q 3816 2838 3816 1997 
z
" transform="scale(0.015625)"/>
      <path id="DejaVuSans-Bold-65" d="M 4031 1759 
L 4031 1441 
L 1416 1441 
Q 1456 1047 1700 850 
Q 1944 653 2381 653 
Q 2734 653 3104 758 
Q 3475 863 3866 1075 
L 3866 213 
Q 3469 63 3072 -14 
Q 2675 -91 2278 -91 
Q 1328 -91 801 392 
Q 275 875 275 1747 
Q 275 2603 792 3093 
Q 1309 3584 2216 3584 
Q 3041 3584 3536 3087 
Q 4031 2591 4031 1759 
z
M 2881 2131 
Q 2881 2450 2695 2645 
Q 2509 2841 2209 2841 
Q 1884 2841 1681 2658 
Q 1478 2475 1428 2131 
L 2881 2131 
z
" transform="scale(0.015625)"/>
      <path id="DejaVuSans-Bold-73" d="M 3272 3391 
L 3272 2541 
Q 2913 2691 2578 2766 
Q 2244 2841 1947 2841 
Q 1628 2841 1473 2761 
Q 1319 2681 1319 2516 
Q 1319 2381 1436 2309 
Q 1553 2238 1856 2203 
L 2053 2175 
Q 2913 2066 3209 1816 
Q 3506 1566 3506 1031 
Q 3506 472 3093 190 
Q 2681 -91 1863 -91 
Q 1516 -91 1145 -36 
Q 775 19 384 128 
L 384 978 
Q 719 816 1070 734 
Q 1422 653 1784 653 
Q 2113 653 2278 743 
Q 2444 834 2444 1013 
Q 2444 1163 2330 1236 
Q 2216 1309 1875 1350 
L 1678 1375 
Q 931 1469 631 1722 
Q 331 1975 331 2491 
Q 331 3047 712 3315 
Q 1094 3584 1881 3584 
Q 2191 3584 2531 3537 
Q 2872 3491 3272 3391 
z
" transform="scale(0.015625)"/>
     </defs>
     <use xlink:href="#DejaVuSans-Bold-53"/>
     <use xlink:href="#DejaVuSans-Bold-74" transform="translate(72.021484 0)"/>
     <use xlink:href="#DejaVuSans-Bold-61" transform="translate(119.824219 0)"/>
     <use xlink:href="#DejaVuSans-Bold-74" transform="translate(187.304688 0)"/>
     <use xlink:href="#DejaVuSans-Bold-65" transform="translate(235.107422 0)"/>
     <use xlink:href="#DejaVuSans-Bold-73" transform="translate(302.929688 0)"/>
    </g>
   </g>
   <g id="text_14">
    <!-- Observations -->
    <g transform="translate(533.639606 359.005478) scale(0.1 -0.1)">
     <defs>
      <path id="DejaVuSans-Bold-4f" d="M 2719 3878 
Q 2169 3878 1866 3472 
Q 1563 3066 1563 2328 
Q 1563 1594 1866 1187 
Q 2169 781 2719 781 
Q 3272 781 3575 1187 
Q 3878 1594 3878 2328 
Q 3878 3066 3575 3472 
Q 3272 3878 2719 3878 
z
M 2719 4750 
Q 3844 4750 4481 4106 
Q 5119 3463 5119 2328 
Q 5119 1197 4481 553 
Q 3844 -91 2719 -91 
Q 1597 -91 958 553 
Q 319 1197 319 2328 
Q 319 3463 958 4106 
Q 1597 4750 2719 4750 
z
" transform="scale(0.015625)"/>
      <path id="DejaVuSans-Bold-62" d="M 2400 722 
Q 2759 722 2948 984 
Q 3138 1247 3138 1747 
Q 3138 2247 2948 2509 
Q 2759 2772 2400 2772 
Q 2041 2772 1848 2508 
Q 1656 2244 1656 1747 
Q 1656 1250 1848 986 
Q 2041 722 2400 722 
z
M 1656 2988 
Q 1888 3294 2169 3439 
Q 2450 3584 2816 3584 
Q 3463 3584 3878 3070 
Q 4294 2556 4294 1747 
Q 4294 938 3878 423 
Q 3463 -91 2816 -91 
Q 2450 -91 2169 54 
Q 1888 200 1656 506 
L 1656 0 
L 538 0 
L 538 4863 
L 1656 4863 
L 1656 2988 
z
" transform="scale(0.015625)"/>
      <path id="DejaVuSans-Bold-72" d="M 3138 2547 
Q 2991 2616 2845 2648 
Q 2700 2681 2553 2681 
Q 2122 2681 1889 2404 
Q 1656 2128 1656 1613 
L 1656 0 
L 538 0 
L 538 3500 
L 1656 3500 
L 1656 2925 
Q 1872 3269 2151 3426 
Q 2431 3584 2822 3584 
Q 2878 3584 2943 3579 
Q 3009 3575 3134 3559 
L 3138 2547 
z
" transform="scale(0.015625)"/>
      <path id="DejaVuSans-Bold-76" d="M 97 3500 
L 1216 3500 
L 2088 1081 
L 2956 3500 
L 4078 3500 
L 2700 0 
L 1472 0 
L 97 3500 
z
" transform="scale(0.015625)"/>
      <path id="DejaVuSans-Bold-69" d="M 538 3500 
L 1656 3500 
L 1656 0 
L 538 0 
L 538 3500 
z
M 538 4863 
L 1656 4863 
L 1656 3950 
L 538 3950 
L 538 4863 
z
" transform="scale(0.015625)"/>
      <path id="DejaVuSans-Bold-6f" d="M 2203 2784 
Q 1831 2784 1636 2517 
Q 1441 2250 1441 1747 
Q 1441 1244 1636 976 
Q 1831 709 2203 709 
Q 2569 709 2762 976 
Q 2956 1244 2956 1747 
Q 2956 2250 2762 2517 
Q 2569 2784 2203 2784 
z
M 2203 3584 
Q 3106 3584 3614 3096 
Q 4122 2609 4122 1747 
Q 4122 884 3614 396 
Q 3106 -91 2203 -91 
Q 1297 -91 786 396 
Q 275 884 275 1747 
Q 275 2609 786 3096 
Q 1297 3584 2203 3584 
z
" transform="scale(0.015625)"/>
      <path id="DejaVuSans-Bold-6e" d="M 4056 2131 
L 4056 0 
L 2931 0 
L 2931 347 
L 2931 1631 
Q 2931 2084 2911 2256 
Q 2891 2428 2841 2509 
Q 2775 2619 2662 2680 
Q 2550 2741 2406 2741 
Q 2056 2741 1856 2470 
Q 1656 2200 1656 1722 
L 1656 0 
L 538 0 
L 538 3500 
L 1656 3500 
L 1656 2988 
Q 1909 3294 2193 3439 
Q 2478 3584 2822 3584 
Q 3428 3584 3742 3212 
Q 4056 2841 4056 2131 
z
" transform="scale(0.015625)"/>
     </defs>
     <use xlink:href="#DejaVuSans-Bold-4f"/>
     <use xlink:href="#DejaVuSans-Bold-62" transform="translate(85.009766 0)"/>
     <use xlink:href="#DejaVuSans-Bold-73" transform="translate(156.591797 0)"/>
     <use xlink:href="#DejaVuSans-Bold-65" transform="translate(216.113281 0)"/>
     <use xlink:href="#DejaVuSans-Bold-72" transform="translate(283.935547 0)"/>
     <use xlink:href="#DejaVuSans-Bold-76" transform="translate(333.251953 0)"/>
     <use xlink:href="#DejaVuSans-Bold-61" transform="translate(398.4375 0)"/>
     <use xlink:href="#DejaVuSans-Bold-74" transform="translate(465.917969 0)"/>
     <use xlink:href="#DejaVuSans-Bold-69" transform="translate(513.720703 0)"/>
     <use xlink:href="#DejaVuSans-Bold-6f" transform="translate(547.998047 0)"/>
     <use xlink:href="#DejaVuSans-Bold-6e" transform="translate(616.699219 0)"/>
     <use xlink:href="#DejaVuSans-Bold-73" transform="translate(687.890625 0)"/>
    </g>
   </g>
   <g id="text_15">
    <!-- B1. Fiber Collapse Bipartite View (Exact) -->
    <g transform="translate(190.696635 16.318125) scale(0.12 -0.12)">
     <defs>
      <path id="DejaVuSans-Bold-42" d="M 2456 2859 
Q 2741 2859 2887 2984 
Q 3034 3109 3034 3353 
Q 3034 3594 2887 3720 
Q 2741 3847 2456 3847 
L 1791 3847 
L 1791 2859 
L 2456 2859 
z
M 2497 819 
Q 2859 819 3042 972 
Q 3225 1125 3225 1434 
Q 3225 1738 3044 1889 
Q 2863 2041 2497 2041 
L 1791 2041 
L 1791 819 
L 2497 819 
z
M 3616 2497 
Q 4003 2384 4215 2081 
Q 4428 1778 4428 1338 
Q 4428 663 3972 331 
Q 3516 0 2584 0 
L 588 0 
L 588 4666 
L 2394 4666 
Q 3366 4666 3802 4372 
Q 4238 4078 4238 3431 
Q 4238 3091 4078 2852 
Q 3919 2613 3616 2497 
z
" transform="scale(0.015625)"/>
      <path id="DejaVuSans-Bold-31" d="M 750 831 
L 1813 831 
L 1813 3847 
L 722 3622 
L 722 4441 
L 1806 4666 
L 2950 4666 
L 2950 831 
L 4013 831 
L 4013 0 
L 750 0 
L 750 831 
z
" transform="scale(0.015625)"/>
      <path id="DejaVuSans-Bold-2e" d="M 653 1209 
L 1778 1209 
L 1778 0 
L 653 0 
L 653 1209 
z
" transform="scale(0.015625)"/>
      <path id="DejaVuSans-Bold-20" transform="scale(0.015625)"/>
      <path id="DejaVuSans-Bold-46" d="M 588 4666 
L 3834 4666 
L 3834 3756 
L 1791 3756 
L 1791 2888 
L 3713 2888 
L 3713 1978 
L 1791 1978 
L 1791 0 
L 588 0 
L 588 4666 
z
" transform="scale(0.015625)"/>
      <path id="DejaVuSans-Bold-43" d="M 4288 256 
Q 3956 84 3597 -3 
Q 3238 -91 2847 -91 
Q 1681 -91 1000 561 
Q 319 1213 319 2328 
Q 319 3447 1000 4098 
Q 1681 4750 2847 4750 
Q 3238 4750 3597 4662 
Q 3956 4575 4288 4403 
L 4288 3438 
Q 3953 3666 3628 3772 
Q 3303 3878 2944 3878 
Q 2300 3878 1931 3465 
Q 1563 3053 1563 2328 
Q 1563 1606 1931 1193 
Q 2300 781 2944 781 
Q 3303 781 3628 887 
Q 3953 994 4288 1222 
L 4288 256 
z
" transform="scale(0.015625)"/>
      <path id="DejaVuSans-Bold-6c" d="M 538 4863 
L 1656 4863 
L 1656 0 
L 538 0 
L 538 4863 
z
" transform="scale(0.015625)"/>
      <path id="DejaVuSans-Bold-70" d="M 1656 506 
L 1656 -1331 
L 538 -1331 
L 538 3500 
L 1656 3500 
L 1656 2988 
Q 1888 3294 2169 3439 
Q 2450 3584 2816 3584 
Q 3463 3584 3878 3070 
Q 4294 2556 4294 1747 
Q 4294 938 3878 423 
Q 3463 -91 2816 -91 
Q 2450 -91 2169 54 
Q 1888 200 1656 506 
z
M 2400 2772 
Q 2041 2772 1848 2508 
Q 1656 2244 1656 1747 
Q 1656 1250 1848 986 
Q 2041 722 2400 722 
Q 2759 722 2948 984 
Q 3138 1247 3138 1747 
Q 3138 2247 2948 2509 
Q 2759 2772 2400 2772 
z
" transform="scale(0.015625)"/>
      <path id="DejaVuSans-Bold-56" d="M 31 4666 
L 1241 4666 
L 2478 1222 
L 3713 4666 
L 4922 4666 
L 3194 0 
L 1759 0 
L 31 4666 
z
" transform="scale(0.015625)"/>
      <path id="DejaVuSans-Bold-77" d="M 225 3500 
L 1313 3500 
L 1900 1088 
L 2491 3500 
L 3425 3500 
L 4013 1113 
L 4603 3500 
L 5691 3500 
L 4769 0 
L 3547 0 
L 2956 2406 
L 2369 0 
L 1147 0 
L 225 3500 
z
" transform="scale(0.015625)"/>
      <path id="DejaVuSans-Bold-28" d="M 2413 -844 
L 1484 -844 
Q 1006 -72 778 623 
Q 550 1319 550 2003 
Q 550 2688 779 3389 
Q 1009 4091 1484 4856 
L 2413 4856 
Q 2013 4116 1813 3408 
Q 1613 2700 1613 2009 
Q 1613 1319 1811 609 
Q 2009 -100 2413 -844 
z
" transform="scale(0.015625)"/>
      <path id="DejaVuSans-Bold-45" d="M 588 4666 
L 3834 4666 
L 3834 3756 
L 1791 3756 
L 1791 2888 
L 3713 2888 
L 3713 1978 
L 1791 1978 
L 1791 909 
L 3903 909 
L 3903 0 
L 588 0 
L 588 4666 
z
" transform="scale(0.015625)"/>
      <path id="DejaVuSans-Bold-78" d="M 1422 1791 
L 159 3500 
L 1344 3500 
L 2059 2463 
L 2784 3500 
L 3969 3500 
L 2706 1797 
L 4031 0 
L 2847 0 
L 2059 1106 
L 1281 0 
L 97 0 
L 1422 1791 
z
" transform="scale(0.015625)"/>
      <path id="DejaVuSans-Bold-63" d="M 3366 3391 
L 3366 2478 
Q 3138 2634 2908 2709 
Q 2678 2784 2431 2784 
Q 1963 2784 1702 2511 
Q 1441 2238 1441 1747 
Q 1441 1256 1702 982 
Q 1963 709 2431 709 
Q 2694 709 2930 787 
Q 3166 866 3366 1019 
L 3366 103 
Q 3103 6 2833 -42 
Q 2563 -91 2291 -91 
Q 1344 -91 809 395 
Q 275 881 275 1747 
Q 275 2613 809 3098 
Q 1344 3584 2291 3584 
Q 2566 3584 2833 3536 
Q 3100 3488 3366 3391 
z
" transform="scale(0.015625)"/>
      <path id="DejaVuSans-Bold-29" d="M 513 -844 
Q 913 -100 1113 609 
Q 1313 1319 1313 2009 
Q 1313 2700 1113 3408 
Q 913 4116 513 4856 
L 1441 4856 
Q 1916 4091 2145 3389 
Q 2375 2688 2375 2003 
Q 2375 1319 2147 623 
Q 1919 -72 1441 -844 
L 513 -844 
z
" transform="scale(0.015625)"/>
     </defs>
     <use xlink:href="#DejaVuSans-Bold-42"/>
     <use xlink:href="#DejaVuSans-Bold-31" transform="translate(76.220703 0)"/>
     <use xlink:href="#DejaVuSans-Bold-2e" transform="translate(145.800781 0)"/>
     <use xlink:href="#DejaVuSans-Bold-20" transform="translate(183.789062 0)"/>
     <use xlink:href="#DejaVuSans-Bold-46" transform="translate(218.603516 0)"/>
     <use xlink:href="#DejaVuSans-Bold-69" transform="translate(286.914062 0)"/>
     <use xlink:href="#DejaVuSans-Bold-62" transform="translate(321.191406 0)"/>
     <use xlink:href="#DejaVuSans-Bold-65" transform="translate(392.773438 0)"/>
     <use xlink:href="#DejaVuSans-Bold-72" transform="translate(460.595703 0)"/>
     <use xlink:href="#DejaVuSans-Bold-20" transform="translate(509.912109 0)"/>
     <use xlink:href="#DejaVuSans-Bold-43" transform="translate(544.726562 0)"/>
     <use xlink:href="#DejaVuSans-Bold-6f" transform="translate(618.115234 0)"/>
     <use xlink:href="#DejaVuSans-Bold-6c" transform="translate(686.816406 0)"/>
     <use xlink:href="#DejaVuSans-Bold-6c" transform="translate(721.09375 0)"/>
     <use xlink:href="#DejaVuSans-Bold-61" transform="translate(755.371094 0)"/>
     <use xlink:href="#DejaVuSans-Bold-70" transform="translate(822.851562 0)"/>
     <use xlink:href="#DejaVuSans-Bold-73" transform="translate(894.433594 0)"/>
     <use xlink:href="#DejaVuSans-Bold-65" transform="translate(953.955078 0)"/>
     <use xlink:href="#DejaVuSans-Bold-20" transform="translate(1021.777344 0)"/>
     <use xlink:href="#DejaVuSans-Bold-42" transform="translate(1056.591797 0)"/>
     <use xlink:href="#DejaVuSans-Bold-69" transform="translate(1132.8125 0)"/>
     <use xlink:href="#DejaVuSans-Bold-70" transform="translate(1167.089844 0)"/>
     <use xlink:href="#DejaVuSans-Bold-61" transform="translate(1238.671875 0)"/>
     <use xlink:href="#DejaVuSans-Bold-72" transform="translate(1306.152344 0)"/>
     <use xlink:href="#DejaVuSans-Bold-74" transform="translate(1355.46875 0)"/>
     <use xlink:href="#DejaVuSans-Bold-69" transform="translate(1403.271484 0)"/>
     <use xlink:href="#DejaVuSans-Bold-74" transform="translate(1437.548828 0)"/>
     <use xlink:href="#DejaVuSans-Bold-65" transform="translate(1485.351562 0)"/>
     <use xlink:href="#DejaVuSans-Bold-20" transform="translate(1553.173828 0)"/>
     <use xlink:href="#DejaVuSans-Bold-56" transform="translate(1587.988281 0)"/>
     <use xlink:href="#DejaVuSans-Bold-69" transform="translate(1663.630859 0)"/>
     <use xlink:href="#DejaVuSans-Bold-65" transform="translate(1697.908203 0)"/>
     <use xlink:href="#DejaVuSans-Bold-77" transform="translate(1765.730469 0)"/>
     <use xlink:href="#DejaVuSans-Bold-20" transform="translate(1858.113281 0)"/>
     <use xlink:href="#DejaVuSans-Bold-28" transform="translate(1892.927734 0)"/>
     <use xlink:href="#DejaVuSans-Bold-45" transform="translate(1938.630859 0)"/>
     <use xlink:href="#DejaVuSans-Bold-78" transform="translate(2006.941406 0)"/>
     <use xlink:href="#DejaVuSans-Bold-61" transform="translate(2071.443359 0)"/>
     <use xlink:href="#DejaVuSans-Bold-63" transform="translate(2138.923828 0)"/>
     <use xlink:href="#DejaVuSans-Bold-74" transform="translate(2198.201172 0)"/>
     <use xlink:href="#DejaVuSans-Bold-29" transform="translate(2246.003906 0)"/>
    </g>
   </g>
  </g>
 </g>
 <defs>
  <clipPath id="p85ce1d8e15">
   <rect x="7.2" y="22.318125" width="641.99952" height="320.654622"/>
  </clipPath>
 </defs>
</svg>
