<?xml version="1.0" encoding="utf-8" standalone="no"?>
<!DOCTYPE svg PUBLIC "-//W3C//DTD SVG 1.1//EN"
  "http://www.w3.org/Graphics/SVG/1.1/DTD/svg11.dtd">
<svg xmlns:xlink="http://www.w3.org/1999/xlink" width="745.960735pt" height="374.420237pt" viewBox="0 0 745.960735 374.420237" xmlns="http://www.w3.org/2000/svg" version="1.1">
 <metadata>
  <rdf:RDF xmlns:dc="http://purl.org/dc/elements/1.1/" xmlns:cc="http://creativecommons.org/ns#" xmlns:rdf="http://www.w3.org/1999/02/22-rdf-syntax-ns#">
   <cc:Work>
    <dc:type rdf:resource="http://purl.org/dc/dcmitype/StillImage"/>
    <dc:date>2026-04-16T17:40:54.996913</dc:date>
    <dc:format>image/svg+xml</dc:format>
    <dc:creator>
     <cc:Agent>
      <dc:title>Matplotlib v3.10.8, https://matplotlib.org/</dc:title>
     </cc:Agent>
    </dc:creator>
   </cc:Work>
  </rdf:RDF>
 </metadata>
 <defs>
  <style type="text/css">*{stroke-linejoin: round; stroke-linecap: butt}</style>
 </defs>
 <g id="figure_1">
  <g id="patch_1">
   <path d="M 0 374.420237 
L 745.960735 374.420237 
L 745.960735 -0 
L 0 -0 
z
" style="fill: #ffffff"/>
  </g>
  <g id="patch_2">
   <path d="M 7.2 361.19952 
L 329.434977 361.19952 
L 329.434977 38.964542 
L 7.2 38.964542 
z
" style="fill: #fffdf8"/>
  </g>
  <g id="pane3d_1">
   <g id="patch_3">
    <path d="M 31.530963 281.746701 
L 137.943476 192.549623 
L 136.46424 63.91149 
L 24.95934 145.282688 
" style="fill: #f2f2f2; opacity: 0.5; stroke: #f2f2f2; stroke-linejoin: miter"/>
   </g>
  </g>
  <g id="pane3d_2">
   <g id="patch_4">
    <path d="M 137.943476 192.549623 
L 308.697592 242.181103 
L 314.791204 109.112177 
L 136.46424 63.91149 
" style="fill: #e6e6e6; opacity: 0.5; stroke: #e6e6e6; stroke-linejoin: miter"/>
   </g>
  </g>
  <g id="pane3d_3">
   <g id="patch_5">
    <path d="M 31.530963 281.746701 
L 212.538666 340.863817 
L 308.697592 242.181103 
L 137.943476 192.549623 
" style="fill: #ececec; opacity: 0.5; stroke: #ececec; stroke-linejoin: miter"/>
   </g>
  </g>
  <g id="grid3d_1">
   <g id="Line3DCollection_1">
    <path d="M 43.01757 285.498227 
L 148.824291 195.712246 
L 147.805173 66.786086 
" style="fill: none; stroke: #b0b0b0; stroke-width: 0.8"/>
    <path d="M 66.22927 293.079168 
L 170.793192 202.097738 
L 170.71237 72.592392 
" style="fill: none; stroke: #b0b0b0; stroke-width: 0.8"/>
    <path d="M 89.76449 300.765771 
L 193.042874 208.564842 
L 193.925017 78.476122 
" style="fill: none; stroke: #b0b0b0; stroke-width: 0.8"/>
    <path d="M 113.63004 308.56026 
L 215.578752 215.115132 
L 217.449264 84.438833 
" style="fill: none; stroke: #b0b0b0; stroke-width: 0.8"/>
    <path d="M 137.832926 316.464922 
L 238.406385 221.750224 
L 241.291429 90.482126 
" style="fill: none; stroke: #b0b0b0; stroke-width: 0.8"/>
    <path d="M 162.38035 324.482111 
L 261.531475 228.471775 
L 265.457999 96.607647 
" style="fill: none; stroke: #b0b0b0; stroke-width: 0.8"/>
    <path d="M 187.279722 332.614246 
L 284.959875 235.281486 
L 289.95564 102.817086 
" style="fill: none; stroke: #b0b0b0; stroke-width: 0.8"/>
    <path d="M 212.538666 340.863817 
L 308.697592 242.181103 
L 314.791204 109.112177 
" style="fill: none; stroke: #b0b0b0; stroke-width: 0.8"/>
   </g>
  </g>
  <g id="grid3d_2">
   <g id="Line3DCollection_2">
    <path d="M 33.035097 139.389368 
L 39.210803 275.309307 
L 219.506981 333.71261 
" style="fill: none; stroke: #b0b0b0; stroke-width: 0.8"/>
    <path d="M 48.891302 127.818232 
L 54.301925 262.65963 
L 233.186984 319.673562 
" style="fill: none; stroke: #b0b0b0; stroke-width: 0.8"/>
    <path d="M 64.365614 116.525784 
L 69.045286 250.301452 
L 246.535189 305.97502 
" style="fill: none; stroke: #b0b0b0; stroke-width: 0.8"/>
    <path d="M 79.471666 105.502075 
L 83.452769 238.224814 
L 259.563524 292.604744 
" style="fill: none; stroke: #b0b0b0; stroke-width: 0.8"/>
    <path d="M 94.222448 94.737626 
L 97.535723 226.420203 
L 272.283349 279.551074 
" style="fill: none; stroke: #b0b0b0; stroke-width: 0.8"/>
    <path d="M 108.630349 84.223396 
L 111.304991 214.87853 
L 284.705495 266.802897 
" style="fill: none; stroke: #b0b0b0; stroke-width: 0.8"/>
    <path d="M 122.707186 73.950762 
L 124.770937 203.591106 
L 296.84029 254.349611 
" style="fill: none; stroke: #b0b0b0; stroke-width: 0.8"/>
    <path d="M 136.46424 63.91149 
L 137.943476 192.549623 
L 308.697592 242.181103 
" style="fill: none; stroke: #b0b0b0; stroke-width: 0.8"/>
   </g>
  </g>
  <g id="grid3d_3">
   <g id="Line3DCollection_3">
    <path d="M 309.087529 233.665872 
L 137.848631 184.301643 
L 31.111101 273.027986 
" style="fill: none; stroke: #b0b0b0; stroke-width: 0.8"/>
    <path d="M 309.874149 216.488104 
L 137.657378 167.669786 
L 30.263837 255.434008 
" style="fill: none; stroke: #b0b0b0; stroke-width: 0.8"/>
    <path d="M 310.669893 199.111082 
L 137.464013 150.854234 
L 29.40637 237.628156 
" style="fill: none; stroke: #b0b0b0; stroke-width: 0.8"/>
    <path d="M 311.474922 181.531317 
L 137.2685 133.851926 
L 28.538515 219.606581 
" style="fill: none; stroke: #b0b0b0; stroke-width: 0.8"/>
    <path d="M 312.289398 163.745241 
L 137.070803 116.659732 
L 27.660081 201.365337 
" style="fill: none; stroke: #b0b0b0; stroke-width: 0.8"/>
    <path d="M 313.113489 145.749201 
L 136.870886 99.274455 
L 26.770875 182.900385 
" style="fill: none; stroke: #b0b0b0; stroke-width: 0.8"/>
    <path d="M 313.947366 127.539456 
L 136.668712 81.692823 
L 25.870696 164.207583 
" style="fill: none; stroke: #b0b0b0; stroke-width: 0.8"/>
    <path d="M 314.791204 109.112177 
L 136.46424 63.91149 
L 24.95934 145.282688 
" style="fill: none; stroke: #b0b0b0; stroke-width: 0.8"/>
   </g>
  </g>
  <g id="axis3d_1">
   <g id="line2d_1">
    <path d="M 31.530963 281.746701 
L 212.538666 340.863817 
" style="fill: none; stroke: #000000; stroke-width: 0.8; stroke-linecap: square"/>
   </g>
   <g id="xtick_1">
    <g id="line2d_2">
     <path d="M 43.938941 284.716366 
L 41.170875 287.065305 
" style="fill: none; stroke: #000000; stroke-width: 0.8; stroke-linecap: square"/>
    </g>
    <g id="text_1">
     <!-- −0.2 -->
     <g transform="translate(23.352414 308.800196) scale(0.1 -0.1)">
      <defs>
       <path id="DejaVuSans-2212" d="M 678 2272 
L 4684 2272 
L 4684 1741 
L 678 1741 
L 678 2272 
z
" transform="scale(0.015625)"/>
       <path id="DejaVuSans-30" d="M 2034 4250 
Q 1547 4250 1301 3770 
Q 1056 3291 1056 2328 
Q 1056 1369 1301 889 
Q 1547 409 2034 409 
Q 2525 409 2770 889 
Q 3016 1369 3016 2328 
Q 3016 3291 2770 3770 
Q 2525 4250 2034 4250 
z
M 2034 4750 
Q 2819 4750 3233 4129 
Q 3647 3509 3647 2328 
Q 3647 1150 3233 529 
Q 2819 -91 2034 -91 
Q 1250 -91 836 529 
Q 422 1150 422 2328 
Q 422 3509 836 4129 
Q 1250 4750 2034 4750 
z
" transform="scale(0.015625)"/>
       <path id="DejaVuSans-2e" d="M 684 794 
L 1344 794 
L 1344 0 
L 684 0 
L 684 794 
z
" transform="scale(0.015625)"/>
       <path id="DejaVuSans-32" d="M 1228 531 
L 3431 531 
L 3431 0 
L 469 0 
L 469 531 
Q 828 903 1448 1529 
Q 2069 2156 2228 2338 
Q 2531 2678 2651 2914 
Q 2772 3150 2772 3378 
Q 2772 3750 2511 3984 
Q 2250 4219 1831 4219 
Q 1534 4219 1204 4116 
Q 875 4013 500 3803 
L 500 4441 
Q 881 4594 1212 4672 
Q 1544 4750 1819 4750 
Q 2544 4750 2975 4387 
Q 3406 4025 3406 3419 
Q 3406 3131 3298 2873 
Q 3191 2616 2906 2266 
Q 2828 2175 2409 1742 
Q 1991 1309 1228 531 
z
" transform="scale(0.015625)"/>
      </defs>
      <use xlink:href="#DejaVuSans-2212"/>
      <use xlink:href="#DejaVuSans-30" transform="translate(83.789062 0)"/>
      <use xlink:href="#DejaVuSans-2e" transform="translate(147.412109 0)"/>
      <use xlink:href="#DejaVuSans-32" transform="translate(179.199219 0)"/>
     </g>
    </g>
   </g>
   <g id="xtick_2">
    <g id="line2d_3">
     <path d="M 67.14033 292.286452 
L 64.403212 294.668028 
" style="fill: none; stroke: #000000; stroke-width: 0.8; stroke-linecap: square"/>
    </g>
    <g id="text_2">
     <!-- 0.0 -->
     <g transform="translate(50.773443 316.513574) scale(0.1 -0.1)">
      <use xlink:href="#DejaVuSans-30"/>
      <use xlink:href="#DejaVuSans-2e" transform="translate(63.623047 0)"/>
      <use xlink:href="#DejaVuSans-30" transform="translate(95.410156 0)"/>
     </g>
    </g>
   </g>
   <g id="xtick_3">
    <g id="line2d_4">
     <path d="M 90.664862 299.961971 
L 87.959827 302.376869 
" style="fill: none; stroke: #000000; stroke-width: 0.8; stroke-linecap: square"/>
    </g>
    <g id="text_3">
     <!-- 0.2 -->
     <g transform="translate(74.329427 324.334795) scale(0.1 -0.1)">
      <use xlink:href="#DejaVuSans-30"/>
      <use xlink:href="#DejaVuSans-2e" transform="translate(63.623047 0)"/>
      <use xlink:href="#DejaVuSans-32" transform="translate(95.410156 0)"/>
     </g>
    </g>
   </g>
   <g id="xtick_4">
    <g id="line2d_5">
     <path d="M 114.519334 307.745143 
L 111.847556 310.194066 
" style="fill: none; stroke: #000000; stroke-width: 0.8; stroke-linecap: square"/>
    </g>
    <g id="text_4">
     <!-- 0.4 -->
     <g transform="translate(98.217069 332.266134) scale(0.1 -0.1)">
      <defs>
       <path id="DejaVuSans-34" d="M 2419 4116 
L 825 1625 
L 2419 1625 
L 2419 4116 
z
M 2253 4666 
L 3047 4666 
L 3047 1625 
L 3713 1625 
L 3713 1100 
L 3047 1100 
L 3047 0 
L 2419 0 
L 2419 1100 
L 313 1100 
L 313 1709 
L 2253 4666 
z
" transform="scale(0.015625)"/>
      </defs>
      <use xlink:href="#DejaVuSans-30"/>
      <use xlink:href="#DejaVuSans-2e" transform="translate(63.623047 0)"/>
      <use xlink:href="#DejaVuSans-34" transform="translate(95.410156 0)"/>
     </g>
    </g>
   </g>
   <g id="xtick_5">
    <g id="line2d_6">
     <path d="M 138.710737 315.638247 
L 136.073431 318.121921 
" style="fill: none; stroke: #000000; stroke-width: 0.8; stroke-linecap: square"/>
    </g>
    <g id="text_5">
     <!-- 0.6 -->
     <g transform="translate(122.443424 340.309936) scale(0.1 -0.1)">
      <defs>
       <path id="DejaVuSans-36" d="M 2113 2584 
Q 1688 2584 1439 2293 
Q 1191 2003 1191 1497 
Q 1191 994 1439 701 
Q 1688 409 2113 409 
Q 2538 409 2786 701 
Q 3034 994 3034 1497 
Q 3034 2003 2786 2293 
Q 2538 2584 2113 2584 
z
M 3366 4563 
L 3366 3988 
Q 3128 4100 2886 4159 
Q 2644 4219 2406 4219 
Q 1781 4219 1451 3797 
Q 1122 3375 1075 2522 
Q 1259 2794 1537 2939 
Q 1816 3084 2150 3084 
Q 2853 3084 3261 2657 
Q 3669 2231 3669 1497 
Q 3669 778 3244 343 
Q 2819 -91 2113 -91 
Q 1303 -91 875 529 
Q 447 1150 447 2328 
Q 447 3434 972 4092 
Q 1497 4750 2381 4750 
Q 2619 4750 2861 4703 
Q 3103 4656 3366 4563 
z
" transform="scale(0.015625)"/>
      </defs>
      <use xlink:href="#DejaVuSans-30"/>
      <use xlink:href="#DejaVuSans-2e" transform="translate(63.623047 0)"/>
      <use xlink:href="#DejaVuSans-36" transform="translate(95.410156 0)"/>
     </g>
    </g>
   </g>
   <g id="xtick_6">
    <g id="line2d_7">
     <path d="M 163.24626 323.64363 
L 160.644682 326.162799 
" style="fill: none; stroke: #000000; stroke-width: 0.8; stroke-linecap: square"/>
    </g>
    <g id="text_6">
     <!-- 0.8 -->
     <g transform="translate(147.015748 348.468608) scale(0.1 -0.1)">
      <defs>
       <path id="DejaVuSans-38" d="M 2034 2216 
Q 1584 2216 1326 1975 
Q 1069 1734 1069 1313 
Q 1069 891 1326 650 
Q 1584 409 2034 409 
Q 2484 409 2743 651 
Q 3003 894 3003 1313 
Q 3003 1734 2745 1975 
Q 2488 2216 2034 2216 
z
M 1403 2484 
Q 997 2584 770 2862 
Q 544 3141 544 3541 
Q 544 4100 942 4425 
Q 1341 4750 2034 4750 
Q 2731 4750 3128 4425 
Q 3525 4100 3525 3541 
Q 3525 3141 3298 2862 
Q 3072 2584 2669 2484 
Q 3125 2378 3379 2068 
Q 3634 1759 3634 1313 
Q 3634 634 3220 271 
Q 2806 -91 2034 -91 
Q 1263 -91 848 271 
Q 434 634 434 1313 
Q 434 1759 690 2068 
Q 947 2378 1403 2484 
z
M 1172 3481 
Q 1172 3119 1398 2916 
Q 1625 2713 2034 2713 
Q 2441 2713 2670 2916 
Q 2900 3119 2900 3481 
Q 2900 3844 2670 4047 
Q 2441 4250 2034 4250 
Q 1625 4250 1398 4047 
Q 1172 3844 1172 3481 
z
" transform="scale(0.015625)"/>
      </defs>
      <use xlink:href="#DejaVuSans-30"/>
      <use xlink:href="#DejaVuSans-2e" transform="translate(63.623047 0)"/>
      <use xlink:href="#DejaVuSans-38" transform="translate(95.410156 0)"/>
     </g>
    </g>
   </g>
   <g id="xtick_7">
    <g id="line2d_8">
     <path d="M 188.133299 331.763705 
L 185.568748 334.319135 
" style="fill: none; stroke: #000000; stroke-width: 0.8; stroke-linecap: square"/>
    </g>
    <g id="text_7">
     <!-- 1.0 -->
     <g transform="translate(171.941503 356.744629) scale(0.1 -0.1)">
      <defs>
       <path id="DejaVuSans-31" d="M 794 531 
L 1825 531 
L 1825 4091 
L 703 3866 
L 703 4441 
L 1819 4666 
L 2450 4666 
L 2450 531 
L 3481 531 
L 3481 0 
L 794 0 
L 794 531 
z
" transform="scale(0.015625)"/>
      </defs>
      <use xlink:href="#DejaVuSans-31"/>
      <use xlink:href="#DejaVuSans-2e" transform="translate(63.623047 0)"/>
      <use xlink:href="#DejaVuSans-30" transform="translate(95.410156 0)"/>
     </g>
    </g>
   </g>
   <g id="xtick_8">
    <g id="line2d_9">
     <path d="M 213.379461 340.000953 
L 210.853283 342.593434 
" style="fill: none; stroke: #000000; stroke-width: 0.8; stroke-linecap: square"/>
    </g>
    <g id="text_8">
     <!-- 1.2 -->
     <g transform="translate(197.228372 365.140549) scale(0.1 -0.1)">
      <use xlink:href="#DejaVuSans-31"/>
      <use xlink:href="#DejaVuSans-2e" transform="translate(63.623047 0)"/>
      <use xlink:href="#DejaVuSans-32" transform="translate(95.410156 0)"/>
     </g>
    </g>
   </g>
   <g id="text_9">
    <!-- e₁ -->
    <g transform="translate(98.299686 348.506468) scale(0.1 -0.1)">
     <defs>
      <path id="DejaVuSans-65" d="M 3597 1894 
L 3597 1613 
L 953 1613 
Q 991 1019 1311 708 
Q 1631 397 2203 397 
Q 2534 397 2845 478 
Q 3156 559 3463 722 
L 3463 178 
Q 3153 47 2828 -22 
Q 2503 -91 2169 -91 
Q 1331 -91 842 396 
Q 353 884 353 1716 
Q 353 2575 817 3079 
Q 1281 3584 2069 3584 
Q 2775 3584 3186 3129 
Q 3597 2675 3597 1894 
z
M 3022 2063 
Q 3016 2534 2758 2815 
Q 2500 3097 2075 3097 
Q 1594 3097 1305 2825 
Q 1016 2553 972 2059 
L 3022 2063 
z
" transform="scale(0.015625)"/>
      <path id="DejaVuSans-2081" d="M 488 319 
L 1125 319 
L 1125 2229 
L 428 2101 
L 428 2463 
L 1147 2585 
L 1575 2585 
L 1575 319 
L 2216 319 
L 2216 -24 
L 488 -24 
L 488 319 
z
" transform="scale(0.015625)"/>
     </defs>
     <use xlink:href="#DejaVuSans-65"/>
     <use xlink:href="#DejaVuSans-2081" transform="translate(61.523438 0)"/>
    </g>
   </g>
  </g>
  <g id="axis3d_2">
   <g id="line2d_10">
    <path d="M 308.697592 242.181103 
L 212.538666 340.863817 
" style="fill: none; stroke: #000000; stroke-width: 0.8; stroke-linecap: square"/>
   </g>
   <g id="xtick_9">
    <g id="line2d_11">
     <path d="M 217.987642 333.220451 
L 222.549589 334.698202 
" style="fill: none; stroke: #000000; stroke-width: 0.8; stroke-linecap: square"/>
    </g>
    <g id="text_10">
     <!-- −0.2 -->
     <g transform="translate(220.241382 354.728988) scale(0.1 -0.1)">
      <use xlink:href="#DejaVuSans-2212"/>
      <use xlink:href="#DejaVuSans-30" transform="translate(83.789062 0)"/>
      <use xlink:href="#DejaVuSans-2e" transform="translate(147.412109 0)"/>
      <use xlink:href="#DejaVuSans-32" transform="translate(179.199219 0)"/>
     </g>
    </g>
   </g>
   <g id="xtick_10">
    <g id="line2d_12">
     <path d="M 231.680473 319.19341 
L 236.203853 320.635094 
" style="fill: none; stroke: #000000; stroke-width: 0.8; stroke-linecap: square"/>
    </g>
    <g id="text_11">
     <!-- 0.0 -->
     <g transform="translate(237.959767 340.518287) scale(0.1 -0.1)">
      <use xlink:href="#DejaVuSans-30"/>
      <use xlink:href="#DejaVuSans-2e" transform="translate(63.623047 0)"/>
      <use xlink:href="#DejaVuSans-30" transform="translate(95.410156 0)"/>
     </g>
    </g>
   </g>
   <g id="xtick_11">
    <g id="line2d_13">
     <path d="M 245.041335 305.50644 
L 249.526667 306.913362 
" style="fill: none; stroke: #000000; stroke-width: 0.8; stroke-linecap: square"/>
    </g>
    <g id="text_12">
     <!-- 0.2 -->
     <g transform="translate(251.160026 326.652421) scale(0.1 -0.1)">
      <use xlink:href="#DejaVuSans-30"/>
      <use xlink:href="#DejaVuSans-2e" transform="translate(63.623047 0)"/>
      <use xlink:href="#DejaVuSans-32" transform="translate(95.410156 0)"/>
     </g>
    </g>
   </g>
   <g id="xtick_12">
    <g id="line2d_14">
     <path d="M 258.082156 292.147323 
L 262.529952 293.520725 
" style="fill: none; stroke: #000000; stroke-width: 0.8; stroke-linecap: square"/>
    </g>
    <g id="text_13">
     <!-- 0.4 -->
     <g transform="translate(264.043809 313.11899) scale(0.1 -0.1)">
      <use xlink:href="#DejaVuSans-30"/>
      <use xlink:href="#DejaVuSans-2e" transform="translate(63.623047 0)"/>
      <use xlink:href="#DejaVuSans-34" transform="translate(95.410156 0)"/>
     </g>
    </g>
   </g>
   <g id="xtick_13">
    <g id="line2d_15">
     <path d="M 270.814298 279.104419 
L 275.225068 280.445485 
" style="fill: none; stroke: #000000; stroke-width: 0.8; stroke-linecap: square"/>
    </g>
    <g id="text_14">
     <!-- 0.6 -->
     <g transform="translate(276.622362 299.906179) scale(0.1 -0.1)">
      <use xlink:href="#DejaVuSans-30"/>
      <use xlink:href="#DejaVuSans-2e" transform="translate(63.623047 0)"/>
      <use xlink:href="#DejaVuSans-36" transform="translate(95.410156 0)"/>
     </g>
    </g>
   </g>
   <g id="xtick_14">
    <g id="line2d_16">
     <path d="M 283.248594 266.366631 
L 287.622843 267.67649 
" style="fill: none; stroke: #000000; stroke-width: 0.8; stroke-linecap: square"/>
    </g>
    <g id="text_15">
     <!-- 0.8 -->
     <g transform="translate(288.906405 287.002729) scale(0.1 -0.1)">
      <use xlink:href="#DejaVuSans-30"/>
      <use xlink:href="#DejaVuSans-2e" transform="translate(63.623047 0)"/>
      <use xlink:href="#DejaVuSans-38" transform="translate(95.410156 0)"/>
     </g>
    </g>
   </g>
   <g id="xtick_15">
    <g id="line2d_17">
     <path d="M 295.395373 253.923377 
L 299.733601 255.203105 
" style="fill: none; stroke: #000000; stroke-width: 0.8; stroke-linecap: square"/>
    </g>
    <g id="text_16">
     <!-- 1.0 -->
     <g transform="translate(300.906161 274.3979) scale(0.1 -0.1)">
      <use xlink:href="#DejaVuSans-31"/>
      <use xlink:href="#DejaVuSans-2e" transform="translate(63.623047 0)"/>
      <use xlink:href="#DejaVuSans-30" transform="translate(95.410156 0)"/>
     </g>
    </g>
   </g>
   <g id="xtick_16">
    <g id="line2d_18">
     <path d="M 307.264495 241.764558 
L 311.567195 243.015183 
" style="fill: none; stroke: #000000; stroke-width: 0.8; stroke-linecap: square"/>
    </g>
    <g id="text_17">
     <!-- 1.2 -->
     <g transform="translate(312.631387 262.081444) scale(0.1 -0.1)">
      <use xlink:href="#DejaVuSans-31"/>
      <use xlink:href="#DejaVuSans-2e" transform="translate(63.623047 0)"/>
      <use xlink:href="#DejaVuSans-32" transform="translate(95.410156 0)"/>
     </g>
    </g>
   </g>
   <g id="text_18">
    <!-- e₂ -->
    <g transform="translate(284.654078 320.077632) scale(0.1 -0.1)">
     <defs>
      <path id="DejaVuSans-2082" d="M 838 332 
L 2163 332 
L 2163 -24 
L 294 -24 
L 294 319 
Q 400 416 597 591 
Q 1672 1544 1672 1838 
Q 1672 2044 1509 2170 
Q 1347 2297 1081 2297 
Q 919 2297 728 2242 
Q 538 2188 313 2079 
L 313 2463 
Q 553 2551 761 2594 
Q 969 2638 1147 2638 
Q 1600 2638 1872 2432 
Q 2144 2226 2144 1888 
Q 2144 1454 1109 566 
Q 934 416 838 332 
z
" transform="scale(0.015625)"/>
     </defs>
     <use xlink:href="#DejaVuSans-65"/>
     <use xlink:href="#DejaVuSans-2082" transform="translate(61.523438 0)"/>
    </g>
   </g>
  </g>
  <g id="axis3d_3">
   <g id="line2d_19">
    <path d="M 308.697592 242.181103 
L 314.791204 109.112177 
" style="fill: none; stroke: #000000; stroke-width: 0.8; stroke-linecap: square"/>
   </g>
   <g id="xtick_17">
    <g id="line2d_20">
     <path d="M 307.65017 233.251514 
L 311.965675 234.495575 
" style="fill: none; stroke: #000000; stroke-width: 0.8; stroke-linecap: square"/>
    </g>
    <g id="text_19">
     <!-- −0.2 -->
     <g transform="translate(315.255537 238.671653) scale(0.1 -0.1)">
      <use xlink:href="#DejaVuSans-2212"/>
      <use xlink:href="#DejaVuSans-30" transform="translate(83.789062 0)"/>
      <use xlink:href="#DejaVuSans-2e" transform="translate(147.412109 0)"/>
      <use xlink:href="#DejaVuSans-32" transform="translate(179.199219 0)"/>
     </g>
    </g>
   </g>
   <g id="xtick_18">
    <g id="line2d_21">
     <path d="M 308.428191 216.078218 
L 312.769533 217.308859 
" style="fill: none; stroke: #000000; stroke-width: 0.8; stroke-linecap: square"/>
    </g>
    <g id="text_20">
     <!-- 0.0 -->
     <g transform="translate(320.33535 221.521895) scale(0.1 -0.1)">
      <use xlink:href="#DejaVuSans-30"/>
      <use xlink:href="#DejaVuSans-2e" transform="translate(63.623047 0)"/>
      <use xlink:href="#DejaVuSans-30" transform="translate(95.410156 0)"/>
     </g>
    </g>
   </g>
   <g id="xtick_19">
    <g id="line2d_22">
     <path d="M 309.215233 198.705799 
L 313.582724 199.922625 
" style="fill: none; stroke: #000000; stroke-width: 0.8; stroke-linecap: square"/>
    </g>
    <g id="text_21">
     <!-- 0.2 -->
     <g transform="translate(321.235616 204.173706) scale(0.1 -0.1)">
      <use xlink:href="#DejaVuSans-30"/>
      <use xlink:href="#DejaVuSans-2e" transform="translate(63.623047 0)"/>
      <use xlink:href="#DejaVuSans-32" transform="translate(95.410156 0)"/>
     </g>
    </g>
   </g>
   <g id="xtick_20">
    <g id="line2d_23">
     <path d="M 310.011454 181.130773 
L 314.40541 182.333376 
" style="fill: none; stroke: #000000; stroke-width: 0.8; stroke-linecap: square"/>
    </g>
    <g id="text_22">
     <!-- 0.4 -->
     <g transform="translate(322.14636 186.623624) scale(0.1 -0.1)">
      <use xlink:href="#DejaVuSans-30"/>
      <use xlink:href="#DejaVuSans-2e" transform="translate(63.623047 0)"/>
      <use xlink:href="#DejaVuSans-34" transform="translate(95.410156 0)"/>
     </g>
    </g>
   </g>
   <g id="xtick_21">
    <g id="line2d_24">
     <path d="M 310.817015 163.349576 
L 315.237758 164.537537 
" style="fill: none; stroke: #000000; stroke-width: 0.8; stroke-linecap: square"/>
    </g>
    <g id="text_23">
     <!-- 0.6 -->
     <g transform="translate(323.067764 168.868102) scale(0.1 -0.1)">
      <use xlink:href="#DejaVuSans-30"/>
      <use xlink:href="#DejaVuSans-2e" transform="translate(63.623047 0)"/>
      <use xlink:href="#DejaVuSans-36" transform="translate(95.410156 0)"/>
     </g>
    </g>
   </g>
   <g id="xtick_22">
    <g id="line2d_25">
     <path d="M 311.632082 145.358557 
L 316.079941 146.531447 
" style="fill: none; stroke: #000000; stroke-width: 0.8; stroke-linecap: square"/>
    </g>
    <g id="text_24">
     <!-- 0.8 -->
     <g transform="translate(324.000018 150.903512) scale(0.1 -0.1)">
      <use xlink:href="#DejaVuSans-30"/>
      <use xlink:href="#DejaVuSans-2e" transform="translate(63.623047 0)"/>
      <use xlink:href="#DejaVuSans-38" transform="translate(95.410156 0)"/>
     </g>
    </g>
   </g>
   <g id="xtick_23">
    <g id="line2d_26">
     <path d="M 312.456823 127.153982 
L 316.932132 128.311356 
" style="fill: none; stroke: #000000; stroke-width: 0.8; stroke-linecap: square"/>
    </g>
    <g id="text_25">
     <!-- 1.0 -->
     <g transform="translate(324.943314 132.72614) scale(0.1 -0.1)">
      <use xlink:href="#DejaVuSans-31"/>
      <use xlink:href="#DejaVuSans-2e" transform="translate(63.623047 0)"/>
      <use xlink:href="#DejaVuSans-30" transform="translate(95.410156 0)"/>
     </g>
    </g>
   </g>
   <g id="xtick_24">
    <g id="line2d_27">
     <path d="M 313.291414 108.732024 
L 317.794513 109.873428 
" style="fill: none; stroke: #000000; stroke-width: 0.8; stroke-linecap: square"/>
    </g>
    <g id="text_26">
     <!-- 1.2 -->
     <g transform="translate(325.89785 114.332183) scale(0.1 -0.1)">
      <use xlink:href="#DejaVuSans-31"/>
      <use xlink:href="#DejaVuSans-2e" transform="translate(63.623047 0)"/>
      <use xlink:href="#DejaVuSans-32" transform="translate(95.410156 0)"/>
     </g>
    </g>
   </g>
   <g id="text_27">
    <!-- e₃ -->
    <g transform="translate(347.018923 174.448065) scale(0.1 -0.1)">
     <defs>
      <path id="DejaVuSans-2083" d="M 1638 1388 
Q 1925 1332 2083 1161 
Q 2241 991 2241 735 
Q 2241 347 1944 138 
Q 1647 -71 1094 -71 
Q 916 -71 720 -38 
Q 525 -6 306 57 
L 306 435 
Q 469 351 655 310 
Q 841 269 1050 269 
Q 1391 269 1578 392 
Q 1766 516 1766 735 
Q 1766 966 1592 1085 
Q 1419 1204 1081 1204 
L 813 1204 
L 813 1541 
L 1106 1541 
Q 1400 1541 1551 1639 
Q 1703 1738 1703 1926 
Q 1703 2107 1547 2202 
Q 1391 2297 1094 2297 
Q 969 2297 809 2269 
Q 650 2241 397 2169 
L 397 2529 
Q 625 2582 825 2610 
Q 1025 2638 1197 2638 
Q 1647 2638 1911 2453 
Q 2175 2269 2175 1960 
Q 2175 1744 2034 1594 
Q 1894 1444 1638 1388 
z
" transform="scale(0.015625)"/>
     </defs>
     <use xlink:href="#DejaVuSans-65"/>
     <use xlink:href="#DejaVuSans-2083" transform="translate(61.523438 0)"/>
    </g>
   </g>
  </g>
  <g id="axes_1">
   <g id="Line3DCollection_4">
    <path d="M 208.57278 284.958628 
L 87.870655 247.410164 
" clip-path="url(#p8db51af991)" style="fill: none; stroke: #1d6f5f; stroke-width: 2.4"/>
    <path d="M 208.57278 284.958628 
L 197.722655 283.680742 
" clip-path="url(#p8db51af991)" style="fill: none; stroke: #1d6f5f; stroke-width: 2.4"/>
    <path d="M 208.57278 284.958628 
L 197.758463 279.494062 
" clip-path="url(#p8db51af991)" style="fill: none; stroke: #1d6f5f; stroke-width: 2.4"/>
   </g>
   <g id="text_28">
    <!-- angle=0.0°, residual=0.00 -->
    <g transform="translate(20.089399 71.18804) scale(0.1 -0.1)">
     <defs>
      <path id="DejaVuSans-61" d="M 2194 1759 
Q 1497 1759 1228 1600 
Q 959 1441 959 1056 
Q 959 750 1161 570 
Q 1363 391 1709 391 
Q 2188 391 2477 730 
Q 2766 1069 2766 1631 
L 2766 1759 
L 2194 1759 
z
M 3341 1997 
L 3341 0 
L 2766 0 
L 2766 531 
Q 2569 213 2275 61 
Q 1981 -91 1556 -91 
Q 1019 -91 701 211 
Q 384 513 384 1019 
Q 384 1609 779 1909 
Q 1175 2209 1959 2209 
L 2766 2209 
L 2766 2266 
Q 2766 2663 2505 2880 
Q 2244 3097 1772 3097 
Q 1472 3097 1187 3025 
Q 903 2953 641 2809 
L 641 3341 
Q 956 3463 1253 3523 
Q 1550 3584 1831 3584 
Q 2591 3584 2966 3190 
Q 3341 2797 3341 1997 
z
" transform="scale(0.015625)"/>
      <path id="DejaVuSans-6e" d="M 3513 2113 
L 3513 0 
L 2938 0 
L 2938 2094 
Q 2938 2591 2744 2837 
Q 2550 3084 2163 3084 
Q 1697 3084 1428 2787 
Q 1159 2491 1159 1978 
L 1159 0 
L 581 0 
L 581 3500 
L 1159 3500 
L 1159 2956 
Q 1366 3272 1645 3428 
Q 1925 3584 2291 3584 
Q 2894 3584 3203 3211 
Q 3513 2838 3513 2113 
z
" transform="scale(0.015625)"/>
      <path id="DejaVuSans-67" d="M 2906 1791 
Q 2906 2416 2648 2759 
Q 2391 3103 1925 3103 
Q 1463 3103 1205 2759 
Q 947 2416 947 1791 
Q 947 1169 1205 825 
Q 1463 481 1925 481 
Q 2391 481 2648 825 
Q 2906 1169 2906 1791 
z
M 3481 434 
Q 3481 -459 3084 -895 
Q 2688 -1331 1869 -1331 
Q 1566 -1331 1297 -1286 
Q 1028 -1241 775 -1147 
L 775 -588 
Q 1028 -725 1275 -790 
Q 1522 -856 1778 -856 
Q 2344 -856 2625 -561 
Q 2906 -266 2906 331 
L 2906 616 
Q 2728 306 2450 153 
Q 2172 0 1784 0 
Q 1141 0 747 490 
Q 353 981 353 1791 
Q 353 2603 747 3093 
Q 1141 3584 1784 3584 
Q 2172 3584 2450 3431 
Q 2728 3278 2906 2969 
L 2906 3500 
L 3481 3500 
L 3481 434 
z
" transform="scale(0.015625)"/>
      <path id="DejaVuSans-6c" d="M 603 4863 
L 1178 4863 
L 1178 0 
L 603 0 
L 603 4863 
z
" transform="scale(0.015625)"/>
      <path id="DejaVuSans-3d" d="M 678 2906 
L 4684 2906 
L 4684 2381 
L 678 2381 
L 678 2906 
z
M 678 1631 
L 4684 1631 
L 4684 1100 
L 678 1100 
L 678 1631 
z
" transform="scale(0.015625)"/>
      <path id="DejaVuSans-b0" d="M 1600 4347 
Q 1350 4347 1178 4173 
Q 1006 4000 1006 3750 
Q 1006 3503 1178 3333 
Q 1350 3163 1600 3163 
Q 1850 3163 2022 3333 
Q 2194 3503 2194 3750 
Q 2194 3997 2020 4172 
Q 1847 4347 1600 4347 
z
M 1600 4750 
Q 1800 4750 1984 4673 
Q 2169 4597 2303 4453 
Q 2447 4313 2519 4134 
Q 2591 3956 2591 3750 
Q 2591 3338 2302 3052 
Q 2013 2766 1594 2766 
Q 1172 2766 890 3047 
Q 609 3328 609 3750 
Q 609 4169 896 4459 
Q 1184 4750 1600 4750 
z
" transform="scale(0.015625)"/>
      <path id="DejaVuSans-2c" d="M 750 794 
L 1409 794 
L 1409 256 
L 897 -744 
L 494 -744 
L 750 256 
L 750 794 
z
" transform="scale(0.015625)"/>
      <path id="DejaVuSans-20" transform="scale(0.015625)"/>
      <path id="DejaVuSans-72" d="M 2631 2963 
Q 2534 3019 2420 3045 
Q 2306 3072 2169 3072 
Q 1681 3072 1420 2755 
Q 1159 2438 1159 1844 
L 1159 0 
L 581 0 
L 581 3500 
L 1159 3500 
L 1159 2956 
Q 1341 3275 1631 3429 
Q 1922 3584 2338 3584 
Q 2397 3584 2469 3576 
Q 2541 3569 2628 3553 
L 2631 2963 
z
" transform="scale(0.015625)"/>
      <path id="DejaVuSans-73" d="M 2834 3397 
L 2834 2853 
Q 2591 2978 2328 3040 
Q 2066 3103 1784 3103 
Q 1356 3103 1142 2972 
Q 928 2841 928 2578 
Q 928 2378 1081 2264 
Q 1234 2150 1697 2047 
L 1894 2003 
Q 2506 1872 2764 1633 
Q 3022 1394 3022 966 
Q 3022 478 2636 193 
Q 2250 -91 1575 -91 
Q 1294 -91 989 -36 
Q 684 19 347 128 
L 347 722 
Q 666 556 975 473 
Q 1284 391 1588 391 
Q 1994 391 2212 530 
Q 2431 669 2431 922 
Q 2431 1156 2273 1281 
Q 2116 1406 1581 1522 
L 1381 1569 
Q 847 1681 609 1914 
Q 372 2147 372 2553 
Q 372 3047 722 3315 
Q 1072 3584 1716 3584 
Q 2034 3584 2315 3537 
Q 2597 3491 2834 3397 
z
" transform="scale(0.015625)"/>
      <path id="DejaVuSans-69" d="M 603 3500 
L 1178 3500 
L 1178 0 
L 603 0 
L 603 3500 
z
M 603 4863 
L 1178 4863 
L 1178 4134 
L 603 4134 
L 603 4863 
z
" transform="scale(0.015625)"/>
      <path id="DejaVuSans-64" d="M 2906 2969 
L 2906 4863 
L 3481 4863 
L 3481 0 
L 2906 0 
L 2906 525 
Q 2725 213 2448 61 
Q 2172 -91 1784 -91 
Q 1150 -91 751 415 
Q 353 922 353 1747 
Q 353 2572 751 3078 
Q 1150 3584 1784 3584 
Q 2172 3584 2448 3432 
Q 2725 3281 2906 2969 
z
M 947 1747 
Q 947 1113 1208 752 
Q 1469 391 1925 391 
Q 2381 391 2643 752 
Q 2906 1113 2906 1747 
Q 2906 2381 2643 2742 
Q 2381 3103 1925 3103 
Q 1469 3103 1208 2742 
Q 947 2381 947 1747 
z
" transform="scale(0.015625)"/>
      <path id="DejaVuSans-75" d="M 544 1381 
L 544 3500 
L 1119 3500 
L 1119 1403 
Q 1119 906 1312 657 
Q 1506 409 1894 409 
Q 2359 409 2629 706 
Q 2900 1003 2900 1516 
L 2900 3500 
L 3475 3500 
L 3475 0 
L 2900 0 
L 2900 538 
Q 2691 219 2414 64 
Q 2138 -91 1772 -91 
Q 1169 -91 856 284 
Q 544 659 544 1381 
z
M 1991 3584 
L 1991 3584 
z
" transform="scale(0.015625)"/>
     </defs>
     <use xlink:href="#DejaVuSans-61"/>
     <use xlink:href="#DejaVuSans-6e" transform="translate(61.279297 0)"/>
     <use xlink:href="#DejaVuSans-67" transform="translate(124.658203 0)"/>
     <use xlink:href="#DejaVuSans-6c" transform="translate(188.134766 0)"/>
     <use xlink:href="#DejaVuSans-65" transform="translate(215.917969 0)"/>
     <use xlink:href="#DejaVuSans-3d" transform="translate(277.441406 0)"/>
     <use xlink:href="#DejaVuSans-30" transform="translate(361.230469 0)"/>
     <use xlink:href="#DejaVuSans-2e" transform="translate(424.853516 0)"/>
     <use xlink:href="#DejaVuSans-30" transform="translate(456.640625 0)"/>
     <use xlink:href="#DejaVuSans-b0" transform="translate(520.263672 0)"/>
     <use xlink:href="#DejaVuSans-2c" transform="translate(570.263672 0)"/>
     <use xlink:href="#DejaVuSans-20" transform="translate(602.050781 0)"/>
     <use xlink:href="#DejaVuSans-72" transform="translate(633.837891 0)"/>
     <use xlink:href="#DejaVuSans-65" transform="translate(672.701172 0)"/>
     <use xlink:href="#DejaVuSans-73" transform="translate(734.224609 0)"/>
     <use xlink:href="#DejaVuSans-69" transform="translate(786.324219 0)"/>
     <use xlink:href="#DejaVuSans-64" transform="translate(814.107422 0)"/>
     <use xlink:href="#DejaVuSans-75" transform="translate(877.583984 0)"/>
     <use xlink:href="#DejaVuSans-61" transform="translate(940.962891 0)"/>
     <use xlink:href="#DejaVuSans-6c" transform="translate(1002.242188 0)"/>
     <use xlink:href="#DejaVuSans-3d" transform="translate(1030.025391 0)"/>
     <use xlink:href="#DejaVuSans-30" transform="translate(1113.814453 0)"/>
     <use xlink:href="#DejaVuSans-2e" transform="translate(1177.4375 0)"/>
     <use xlink:href="#DejaVuSans-30" transform="translate(1209.224609 0)"/>
     <use xlink:href="#DejaVuSans-30" transform="translate(1272.847656 0)"/>
    </g>
   </g>
   <g id="text_29">
    <!-- D. Same rank, exact verdict -->
    <g transform="translate(84.615614 32.964542) scale(0.12 -0.12)">
     <defs>
      <path id="DejaVuSans-44" d="M 1259 4147 
L 1259 519 
L 2022 519 
Q 2988 519 3436 956 
Q 3884 1394 3884 2338 
Q 3884 3275 3436 3711 
Q 2988 4147 2022 4147 
L 1259 4147 
z
M 628 4666 
L 1925 4666 
Q 3281 4666 3915 4102 
Q 4550 3538 4550 2338 
Q 4550 1131 3912 565 
Q 3275 0 1925 0 
L 628 0 
L 628 4666 
z
" transform="scale(0.015625)"/>
      <path id="DejaVuSans-53" d="M 3425 4513 
L 3425 3897 
Q 3066 4069 2747 4153 
Q 2428 4238 2131 4238 
Q 1616 4238 1336 4038 
Q 1056 3838 1056 3469 
Q 1056 3159 1242 3001 
Q 1428 2844 1947 2747 
L 2328 2669 
Q 3034 2534 3370 2195 
Q 3706 1856 3706 1288 
Q 3706 609 3251 259 
Q 2797 -91 1919 -91 
Q 1588 -91 1214 -16 
Q 841 59 441 206 
L 441 856 
Q 825 641 1194 531 
Q 1563 422 1919 422 
Q 2459 422 2753 634 
Q 3047 847 3047 1241 
Q 3047 1584 2836 1778 
Q 2625 1972 2144 2069 
L 1759 2144 
Q 1053 2284 737 2584 
Q 422 2884 422 3419 
Q 422 4038 858 4394 
Q 1294 4750 2059 4750 
Q 2388 4750 2728 4690 
Q 3069 4631 3425 4513 
z
" transform="scale(0.015625)"/>
      <path id="DejaVuSans-6d" d="M 3328 2828 
Q 3544 3216 3844 3400 
Q 4144 3584 4550 3584 
Q 5097 3584 5394 3201 
Q 5691 2819 5691 2113 
L 5691 0 
L 5113 0 
L 5113 2094 
Q 5113 2597 4934 2840 
Q 4756 3084 4391 3084 
Q 3944 3084 3684 2787 
Q 3425 2491 3425 1978 
L 3425 0 
L 2847 0 
L 2847 2094 
Q 2847 2600 2669 2842 
Q 2491 3084 2119 3084 
Q 1678 3084 1418 2786 
Q 1159 2488 1159 1978 
L 1159 0 
L 581 0 
L 581 3500 
L 1159 3500 
L 1159 2956 
Q 1356 3278 1631 3431 
Q 1906 3584 2284 3584 
Q 2666 3584 2933 3390 
Q 3200 3197 3328 2828 
z
" transform="scale(0.015625)"/>
      <path id="DejaVuSans-6b" d="M 581 4863 
L 1159 4863 
L 1159 1991 
L 2875 3500 
L 3609 3500 
L 1753 1863 
L 3688 0 
L 2938 0 
L 1159 1709 
L 1159 0 
L 581 0 
L 581 4863 
z
" transform="scale(0.015625)"/>
      <path id="DejaVuSans-78" d="M 3513 3500 
L 2247 1797 
L 3578 0 
L 2900 0 
L 1881 1375 
L 863 0 
L 184 0 
L 1544 1831 
L 300 3500 
L 978 3500 
L 1906 2253 
L 2834 3500 
L 3513 3500 
z
" transform="scale(0.015625)"/>
      <path id="DejaVuSans-63" d="M 3122 3366 
L 3122 2828 
Q 2878 2963 2633 3030 
Q 2388 3097 2138 3097 
Q 1578 3097 1268 2742 
Q 959 2388 959 1747 
Q 959 1106 1268 751 
Q 1578 397 2138 397 
Q 2388 397 2633 464 
Q 2878 531 3122 666 
L 3122 134 
Q 2881 22 2623 -34 
Q 2366 -91 2075 -91 
Q 1284 -91 818 406 
Q 353 903 353 1747 
Q 353 2603 823 3093 
Q 1294 3584 2113 3584 
Q 2378 3584 2631 3529 
Q 2884 3475 3122 3366 
z
" transform="scale(0.015625)"/>
      <path id="DejaVuSans-74" d="M 1172 4494 
L 1172 3500 
L 2356 3500 
L 2356 3053 
L 1172 3053 
L 1172 1153 
Q 1172 725 1289 603 
Q 1406 481 1766 481 
L 2356 481 
L 2356 0 
L 1766 0 
Q 1100 0 847 248 
Q 594 497 594 1153 
L 594 3053 
L 172 3053 
L 172 3500 
L 594 3500 
L 594 4494 
L 1172 4494 
z
" transform="scale(0.015625)"/>
      <path id="DejaVuSans-76" d="M 191 3500 
L 800 3500 
L 1894 563 
L 2988 3500 
L 3597 3500 
L 2284 0 
L 1503 0 
L 191 3500 
z
" transform="scale(0.015625)"/>
     </defs>
     <use xlink:href="#DejaVuSans-44"/>
     <use xlink:href="#DejaVuSans-2e" transform="translate(77.001953 0)"/>
     <use xlink:href="#DejaVuSans-20" transform="translate(108.789062 0)"/>
     <use xlink:href="#DejaVuSans-53" transform="translate(140.576172 0)"/>
     <use xlink:href="#DejaVuSans-61" transform="translate(204.052734 0)"/>
     <use xlink:href="#DejaVuSans-6d" transform="translate(265.332031 0)"/>
     <use xlink:href="#DejaVuSans-65" transform="translate(362.744141 0)"/>
     <use xlink:href="#DejaVuSans-20" transform="translate(424.267578 0)"/>
     <use xlink:href="#DejaVuSans-72" transform="translate(456.054688 0)"/>
     <use xlink:href="#DejaVuSans-61" transform="translate(497.167969 0)"/>
     <use xlink:href="#DejaVuSans-6e" transform="translate(558.447266 0)"/>
     <use xlink:href="#DejaVuSans-6b" transform="translate(621.826172 0)"/>
     <use xlink:href="#DejaVuSans-2c" transform="translate(679.736328 0)"/>
     <use xlink:href="#DejaVuSans-20" transform="translate(711.523438 0)"/>
     <use xlink:href="#DejaVuSans-65" transform="translate(743.310547 0)"/>
     <use xlink:href="#DejaVuSans-78" transform="translate(803.083984 0)"/>
     <use xlink:href="#DejaVuSans-61" transform="translate(862.263672 0)"/>
     <use xlink:href="#DejaVuSans-63" transform="translate(923.542969 0)"/>
     <use xlink:href="#DejaVuSans-74" transform="translate(978.523438 0)"/>
     <use xlink:href="#DejaVuSans-20" transform="translate(1017.732422 0)"/>
     <use xlink:href="#DejaVuSans-76" transform="translate(1049.519531 0)"/>
     <use xlink:href="#DejaVuSans-65" transform="translate(1108.699219 0)"/>
     <use xlink:href="#DejaVuSans-72" transform="translate(1170.222656 0)"/>
     <use xlink:href="#DejaVuSans-64" transform="translate(1209.585938 0)"/>
     <use xlink:href="#DejaVuSans-69" transform="translate(1273.0625 0)"/>
     <use xlink:href="#DejaVuSans-63" transform="translate(1300.845703 0)"/>
     <use xlink:href="#DejaVuSans-74" transform="translate(1355.826172 0)"/>
    </g>
   </g>
   <g id="Line3DCollection_5">
    <path d="M 208.57278 284.958628 
L 87.870655 247.410164 
" clip-path="url(#p8db51af991)" style="fill: none; stroke: #2e5da8; stroke-width: 2.4"/>
    <path d="M 208.57278 284.958628 
L 197.722655 283.680742 
" clip-path="url(#p8db51af991)" style="fill: none; stroke: #2e5da8; stroke-width: 2.4"/>
    <path d="M 208.57278 284.958628 
L 197.758463 279.494062 
" clip-path="url(#p8db51af991)" style="fill: none; stroke: #2e5da8; stroke-width: 2.4"/>
   </g>
  </g>
  <g id="patch_6">
   <path d="M 404.15976 361.19952 
L 726.394738 361.19952 
L 726.394738 38.964542 
L 404.15976 38.964542 
z
" style="fill: #fffdf8"/>
  </g>
  <g id="pane3d_4">
   <g id="patch_7">
    <path d="M 428.490723 281.746701 
L 534.903236 192.549623 
L 533.424 63.91149 
L 421.9191 145.282688 
" style="fill: #f2f2f2; opacity: 0.5; stroke: #f2f2f2; stroke-linejoin: miter"/>
   </g>
  </g>
  <g id="pane3d_5">
   <g id="patch_8">
    <path d="M 534.903236 192.549623 
L 705.657352 242.181103 
L 711.750964 109.112177 
L 533.424 63.91149 
" style="fill: #e6e6e6; opacity: 0.5; stroke: #e6e6e6; stroke-linejoin: miter"/>
   </g>
  </g>
  <g id="pane3d_6">
   <g id="patch_9">
    <path d="M 428.490723 281.746701 
L 609.498426 340.863817 
L 705.657352 242.181103 
L 534.903236 192.549623 
" style="fill: #ececec; opacity: 0.5; stroke: #ececec; stroke-linejoin: miter"/>
   </g>
  </g>
  <g id="grid3d_4">
   <g id="Line3DCollection_6">
    <path d="M 439.97733 285.498227 
L 545.784051 195.712246 
L 544.764933 66.786086 
" style="fill: none; stroke: #b0b0b0; stroke-width: 0.8"/>
    <path d="M 463.18903 293.079168 
L 567.752952 202.097738 
L 567.67213 72.592392 
" style="fill: none; stroke: #b0b0b0; stroke-width: 0.8"/>
    <path d="M 486.72425 300.765771 
L 590.002634 208.564842 
L 590.884777 78.476122 
" style="fill: none; stroke: #b0b0b0; stroke-width: 0.8"/>
    <path d="M 510.5898 308.56026 
L 612.538512 215.115132 
L 614.409024 84.438833 
" style="fill: none; stroke: #b0b0b0; stroke-width: 0.8"/>
    <path d="M 534.792686 316.464922 
L 635.366145 221.750224 
L 638.251189 90.482126 
" style="fill: none; stroke: #b0b0b0; stroke-width: 0.8"/>
    <path d="M 559.34011 324.482111 
L 658.491235 228.471775 
L 662.417759 96.607647 
" style="fill: none; stroke: #b0b0b0; stroke-width: 0.8"/>
    <path d="M 584.239482 332.614246 
L 681.919635 235.281486 
L 686.9154 102.817086 
" style="fill: none; stroke: #b0b0b0; stroke-width: 0.8"/>
    <path d="M 609.498426 340.863817 
L 705.657352 242.181103 
L 711.750964 109.112177 
" style="fill: none; stroke: #b0b0b0; stroke-width: 0.8"/>
   </g>
  </g>
  <g id="grid3d_5">
   <g id="Line3DCollection_7">
    <path d="M 429.994857 139.389368 
L 436.170563 275.309307 
L 616.466741 333.71261 
" style="fill: none; stroke: #b0b0b0; stroke-width: 0.8"/>
    <path d="M 445.851062 127.818232 
L 451.261685 262.65963 
L 630.146744 319.673562 
" style="fill: none; stroke: #b0b0b0; stroke-width: 0.8"/>
    <path d="M 461.325374 116.525784 
L 466.005046 250.301452 
L 643.494949 305.97502 
" style="fill: none; stroke: #b0b0b0; stroke-width: 0.8"/>
    <path d="M 476.431426 105.502075 
L 480.412529 238.224814 
L 656.523284 292.604744 
" style="fill: none; stroke: #b0b0b0; stroke-width: 0.8"/>
    <path d="M 491.182208 94.737626 
L 494.495483 226.420203 
L 669.243109 279.551074 
" style="fill: none; stroke: #b0b0b0; stroke-width: 0.8"/>
    <path d="M 505.590109 84.223396 
L 508.264751 214.87853 
L 681.665255 266.802897 
" style="fill: none; stroke: #b0b0b0; stroke-width: 0.8"/>
    <path d="M 519.666946 73.950762 
L 521.730697 203.591106 
L 693.80005 254.349611 
" style="fill: none; stroke: #b0b0b0; stroke-width: 0.8"/>
    <path d="M 533.424 63.91149 
L 534.903236 192.549623 
L 705.657352 242.181103 
" style="fill: none; stroke: #b0b0b0; stroke-width: 0.8"/>
   </g>
  </g>
  <g id="grid3d_6">
   <g id="Line3DCollection_8">
    <path d="M 706.047289 233.665872 
L 534.808391 184.301643 
L 428.070861 273.027986 
" style="fill: none; stroke: #b0b0b0; stroke-width: 0.8"/>
    <path d="M 706.833909 216.488104 
L 534.617138 167.669786 
L 427.223597 255.434008 
" style="fill: none; stroke: #b0b0b0; stroke-width: 0.8"/>
    <path d="M 707.629653 199.111082 
L 534.423773 150.854234 
L 426.36613 237.628156 
" style="fill: none; stroke: #b0b0b0; stroke-width: 0.8"/>
    <path d="M 708.434682 181.531317 
L 534.22826 133.851926 
L 425.498275 219.606581 
" style="fill: none; stroke: #b0b0b0; stroke-width: 0.8"/>
    <path d="M 709.249158 163.745241 
L 534.030563 116.659732 
L 424.619841 201.365337 
" style="fill: none; stroke: #b0b0b0; stroke-width: 0.8"/>
    <path d="M 710.073249 145.749201 
L 533.830646 99.274455 
L 423.730635 182.900385 
" style="fill: none; stroke: #b0b0b0; stroke-width: 0.8"/>
    <path d="M 710.907126 127.539456 
L 533.628472 81.692823 
L 422.830456 164.207583 
" style="fill: none; stroke: #b0b0b0; stroke-width: 0.8"/>
    <path d="M 711.750964 109.112177 
L 533.424 63.91149 
L 421.9191 145.282688 
" style="fill: none; stroke: #b0b0b0; stroke-width: 0.8"/>
   </g>
  </g>
  <g id="axis3d_4">
   <g id="line2d_28">
    <path d="M 428.490723 281.746701 
L 609.498426 340.863817 
" style="fill: none; stroke: #000000; stroke-width: 0.8; stroke-linecap: square"/>
   </g>
   <g id="xtick_25">
    <g id="line2d_29">
     <path d="M 440.898701 284.716366 
L 438.130635 287.065305 
" style="fill: none; stroke: #000000; stroke-width: 0.8; stroke-linecap: square"/>
    </g>
    <g id="text_30">
     <!-- −0.2 -->
     <g transform="translate(420.312174 308.800196) scale(0.1 -0.1)">
      <use xlink:href="#DejaVuSans-2212"/>
      <use xlink:href="#DejaVuSans-30" transform="translate(83.789062 0)"/>
      <use xlink:href="#DejaVuSans-2e" transform="translate(147.412109 0)"/>
      <use xlink:href="#DejaVuSans-32" transform="translate(179.199219 0)"/>
     </g>
    </g>
   </g>
   <g id="xtick_26">
    <g id="line2d_30">
     <path d="M 464.10009 292.286452 
L 461.362972 294.668028 
" style="fill: none; stroke: #000000; stroke-width: 0.8; stroke-linecap: square"/>
    </g>
    <g id="text_31">
     <!-- 0.0 -->
     <g transform="translate(447.733203 316.513574) scale(0.1 -0.1)">
      <use xlink:href="#DejaVuSans-30"/>
      <use xlink:href="#DejaVuSans-2e" transform="translate(63.623047 0)"/>
      <use xlink:href="#DejaVuSans-30" transform="translate(95.410156 0)"/>
     </g>
    </g>
   </g>
   <g id="xtick_27">
    <g id="line2d_31">
     <path d="M 487.624622 299.961971 
L 484.919587 302.376869 
" style="fill: none; stroke: #000000; stroke-width: 0.8; stroke-linecap: square"/>
    </g>
    <g id="text_32">
     <!-- 0.2 -->
     <g transform="translate(471.289187 324.334795) scale(0.1 -0.1)">
      <use xlink:href="#DejaVuSans-30"/>
      <use xlink:href="#DejaVuSans-2e" transform="translate(63.623047 0)"/>
      <use xlink:href="#DejaVuSans-32" transform="translate(95.410156 0)"/>
     </g>
    </g>
   </g>
   <g id="xtick_28">
    <g id="line2d_32">
     <path d="M 511.479094 307.745143 
L 508.807316 310.194066 
" style="fill: none; stroke: #000000; stroke-width: 0.8; stroke-linecap: square"/>
    </g>
    <g id="text_33">
     <!-- 0.4 -->
     <g transform="translate(495.176829 332.266134) scale(0.1 -0.1)">
      <use xlink:href="#DejaVuSans-30"/>
      <use xlink:href="#DejaVuSans-2e" transform="translate(63.623047 0)"/>
      <use xlink:href="#DejaVuSans-34" transform="translate(95.410156 0)"/>
     </g>
    </g>
   </g>
   <g id="xtick_29">
    <g id="line2d_33">
     <path d="M 535.670497 315.638247 
L 533.033191 318.121921 
" style="fill: none; stroke: #000000; stroke-width: 0.8; stroke-linecap: square"/>
    </g>
    <g id="text_34">
     <!-- 0.6 -->
     <g transform="translate(519.403184 340.309936) scale(0.1 -0.1)">
      <use xlink:href="#DejaVuSans-30"/>
      <use xlink:href="#DejaVuSans-2e" transform="translate(63.623047 0)"/>
      <use xlink:href="#DejaVuSans-36" transform="translate(95.410156 0)"/>
     </g>
    </g>
   </g>
   <g id="xtick_30">
    <g id="line2d_34">
     <path d="M 560.20602 323.64363 
L 557.604442 326.162799 
" style="fill: none; stroke: #000000; stroke-width: 0.8; stroke-linecap: square"/>
    </g>
    <g id="text_35">
     <!-- 0.8 -->
     <g transform="translate(543.975508 348.468608) scale(0.1 -0.1)">
      <use xlink:href="#DejaVuSans-30"/>
      <use xlink:href="#DejaVuSans-2e" transform="translate(63.623047 0)"/>
      <use xlink:href="#DejaVuSans-38" transform="translate(95.410156 0)"/>
     </g>
    </g>
   </g>
   <g id="xtick_31">
    <g id="line2d_35">
     <path d="M 585.093059 331.763705 
L 582.528508 334.319135 
" style="fill: none; stroke: #000000; stroke-width: 0.8; stroke-linecap: square"/>
    </g>
    <g id="text_36">
     <!-- 1.0 -->
     <g transform="translate(568.901263 356.744629) scale(0.1 -0.1)">
      <use xlink:href="#DejaVuSans-31"/>
      <use xlink:href="#DejaVuSans-2e" transform="translate(63.623047 0)"/>
      <use xlink:href="#DejaVuSans-30" transform="translate(95.410156 0)"/>
     </g>
    </g>
   </g>
   <g id="xtick_32">
    <g id="line2d_36">
     <path d="M 610.339221 340.000953 
L 607.813043 342.593434 
" style="fill: none; stroke: #000000; stroke-width: 0.8; stroke-linecap: square"/>
    </g>
    <g id="text_37">
     <!-- 1.2 -->
     <g transform="translate(594.188132 365.140549) scale(0.1 -0.1)">
      <use xlink:href="#DejaVuSans-31"/>
      <use xlink:href="#DejaVuSans-2e" transform="translate(63.623047 0)"/>
      <use xlink:href="#DejaVuSans-32" transform="translate(95.410156 0)"/>
     </g>
    </g>
   </g>
   <g id="text_38">
    <!-- e₁ -->
    <g transform="translate(495.259446 348.506468) scale(0.1 -0.1)">
     <use xlink:href="#DejaVuSans-65"/>
     <use xlink:href="#DejaVuSans-2081" transform="translate(61.523438 0)"/>
    </g>
   </g>
  </g>
  <g id="axis3d_5">
   <g id="line2d_37">
    <path d="M 705.657352 242.181103 
L 609.498426 340.863817 
" style="fill: none; stroke: #000000; stroke-width: 0.8; stroke-linecap: square"/>
   </g>
   <g id="xtick_33">
    <g id="line2d_38">
     <path d="M 614.947402 333.220451 
L 619.509349 334.698202 
" style="fill: none; stroke: #000000; stroke-width: 0.8; stroke-linecap: square"/>
    </g>
    <g id="text_39">
     <!-- −0.2 -->
     <g transform="translate(617.201142 354.728988) scale(0.1 -0.1)">
      <use xlink:href="#DejaVuSans-2212"/>
      <use xlink:href="#DejaVuSans-30" transform="translate(83.789062 0)"/>
      <use xlink:href="#DejaVuSans-2e" transform="translate(147.412109 0)"/>
      <use xlink:href="#DejaVuSans-32" transform="translate(179.199219 0)"/>
     </g>
    </g>
   </g>
   <g id="xtick_34">
    <g id="line2d_39">
     <path d="M 628.640233 319.19341 
L 633.163613 320.635094 
" style="fill: none; stroke: #000000; stroke-width: 0.8; stroke-linecap: square"/>
    </g>
    <g id="text_40">
     <!-- 0.0 -->
     <g transform="translate(634.919527 340.518287) scale(0.1 -0.1)">
      <use xlink:href="#DejaVuSans-30"/>
      <use xlink:href="#DejaVuSans-2e" transform="translate(63.623047 0)"/>
      <use xlink:href="#DejaVuSans-30" transform="translate(95.410156 0)"/>
     </g>
    </g>
   </g>
   <g id="xtick_35">
    <g id="line2d_40">
     <path d="M 642.001095 305.50644 
L 646.486427 306.913362 
" style="fill: none; stroke: #000000; stroke-width: 0.8; stroke-linecap: square"/>
    </g>
    <g id="text_41">
     <!-- 0.2 -->
     <g transform="translate(648.119786 326.652421) scale(0.1 -0.1)">
      <use xlink:href="#DejaVuSans-30"/>
      <use xlink:href="#DejaVuSans-2e" transform="translate(63.623047 0)"/>
      <use xlink:href="#DejaVuSans-32" transform="translate(95.410156 0)"/>
     </g>
    </g>
   </g>
   <g id="xtick_36">
    <g id="line2d_41">
     <path d="M 655.041916 292.147323 
L 659.489712 293.520725 
" style="fill: none; stroke: #000000; stroke-width: 0.8; stroke-linecap: square"/>
    </g>
    <g id="text_42">
     <!-- 0.4 -->
     <g transform="translate(661.003569 313.11899) scale(0.1 -0.1)">
      <use xlink:href="#DejaVuSans-30"/>
      <use xlink:href="#DejaVuSans-2e" transform="translate(63.623047 0)"/>
      <use xlink:href="#DejaVuSans-34" transform="translate(95.410156 0)"/>
     </g>
    </g>
   </g>
   <g id="xtick_37">
    <g id="line2d_42">
     <path d="M 667.774058 279.104419 
L 672.184828 280.445485 
" style="fill: none; stroke: #000000; stroke-width: 0.8; stroke-linecap: square"/>
    </g>
    <g id="text_43">
     <!-- 0.6 -->
     <g transform="translate(673.582122 299.906179) scale(0.1 -0.1)">
      <use xlink:href="#DejaVuSans-30"/>
      <use xlink:href="#DejaVuSans-2e" transform="translate(63.623047 0)"/>
      <use xlink:href="#DejaVuSans-36" transform="translate(95.410156 0)"/>
     </g>
    </g>
   </g>
   <g id="xtick_38">
    <g id="line2d_43">
     <path d="M 680.208354 266.366631 
L 684.582603 267.67649 
" style="fill: none; stroke: #000000; stroke-width: 0.8; stroke-linecap: square"/>
    </g>
    <g id="text_44">
     <!-- 0.8 -->
     <g transform="translate(685.866165 287.002729) scale(0.1 -0.1)">
      <use xlink:href="#DejaVuSans-30"/>
      <use xlink:href="#DejaVuSans-2e" transform="translate(63.623047 0)"/>
      <use xlink:href="#DejaVuSans-38" transform="translate(95.410156 0)"/>
     </g>
    </g>
   </g>
   <g id="xtick_39">
    <g id="line2d_44">
     <path d="M 692.355133 253.923377 
L 696.693361 255.203105 
" style="fill: none; stroke: #000000; stroke-width: 0.8; stroke-linecap: square"/>
    </g>
    <g id="text_45">
     <!-- 1.0 -->
     <g transform="translate(697.865921 274.3979) scale(0.1 -0.1)">
      <use xlink:href="#DejaVuSans-31"/>
      <use xlink:href="#DejaVuSans-2e" transform="translate(63.623047 0)"/>
      <use xlink:href="#DejaVuSans-30" transform="translate(95.410156 0)"/>
     </g>
    </g>
   </g>
   <g id="xtick_40">
    <g id="line2d_45">
     <path d="M 704.224255 241.764558 
L 708.526955 243.015183 
" style="fill: none; stroke: #000000; stroke-width: 0.8; stroke-linecap: square"/>
    </g>
    <g id="text_46">
     <!-- 1.2 -->
     <g transform="translate(709.591147 262.081444) scale(0.1 -0.1)">
      <use xlink:href="#DejaVuSans-31"/>
      <use xlink:href="#DejaVuSans-2e" transform="translate(63.623047 0)"/>
      <use xlink:href="#DejaVuSans-32" transform="translate(95.410156 0)"/>
     </g>
    </g>
   </g>
   <g id="text_47">
    <!-- e₂ -->
    <g transform="translate(681.613838 320.077632) scale(0.1 -0.1)">
     <use xlink:href="#DejaVuSans-65"/>
     <use xlink:href="#DejaVuSans-2082" transform="translate(61.523438 0)"/>
    </g>
   </g>
  </g>
  <g id="axis3d_6">
   <g id="line2d_46">
    <path d="M 705.657352 242.181103 
L 711.750964 109.112177 
" style="fill: none; stroke: #000000; stroke-width: 0.8; stroke-linecap: square"/>
   </g>
   <g id="xtick_41">
    <g id="line2d_47">
     <path d="M 704.60993 233.251514 
L 708.925435 234.495575 
" style="fill: none; stroke: #000000; stroke-width: 0.8; stroke-linecap: square"/>
    </g>
    <g id="text_48">
     <!-- −0.2 -->
     <g transform="translate(712.215297 238.671653) scale(0.1 -0.1)">
      <use xlink:href="#DejaVuSans-2212"/>
      <use xlink:href="#DejaVuSans-30" transform="translate(83.789062 0)"/>
      <use xlink:href="#DejaVuSans-2e" transform="translate(147.412109 0)"/>
      <use xlink:href="#DejaVuSans-32" transform="translate(179.199219 0)"/>
     </g>
    </g>
   </g>
   <g id="xtick_42">
    <g id="line2d_48">
     <path d="M 705.387951 216.078218 
L 709.729293 217.308859 
" style="fill: none; stroke: #000000; stroke-width: 0.8; stroke-linecap: square"/>
    </g>
    <g id="text_49">
     <!-- 0.0 -->
     <g transform="translate(717.29511 221.521895) scale(0.1 -0.1)">
      <use xlink:href="#DejaVuSans-30"/>
      <use xlink:href="#DejaVuSans-2e" transform="translate(63.623047 0)"/>
      <use xlink:href="#DejaVuSans-30" transform="translate(95.410156 0)"/>
     </g>
    </g>
   </g>
   <g id="xtick_43">
    <g id="line2d_49">
     <path d="M 706.174993 198.705799 
L 710.542484 199.922625 
" style="fill: none; stroke: #000000; stroke-width: 0.8; stroke-linecap: square"/>
    </g>
    <g id="text_50">
     <!-- 0.2 -->
     <g transform="translate(718.195376 204.173706) scale(0.1 -0.1)">
      <use xlink:href="#DejaVuSans-30"/>
      <use xlink:href="#DejaVuSans-2e" transform="translate(63.623047 0)"/>
      <use xlink:href="#DejaVuSans-32" transform="translate(95.410156 0)"/>
     </g>
    </g>
   </g>
   <g id="xtick_44">
    <g id="line2d_50">
     <path d="M 706.971214 181.130773 
L 711.36517 182.333376 
" style="fill: none; stroke: #000000; stroke-width: 0.8; stroke-linecap: square"/>
    </g>
    <g id="text_51">
     <!-- 0.4 -->
     <g transform="translate(719.10612 186.623624) scale(0.1 -0.1)">
      <use xlink:href="#DejaVuSans-30"/>
      <use xlink:href="#DejaVuSans-2e" transform="translate(63.623047 0)"/>
      <use xlink:href="#DejaVuSans-34" transform="translate(95.410156 0)"/>
     </g>
    </g>
   </g>
   <g id="xtick_45">
    <g id="line2d_51">
     <path d="M 707.776775 163.349576 
L 712.197518 164.537537 
" style="fill: none; stroke: #000000; stroke-width: 0.8; stroke-linecap: square"/>
    </g>
    <g id="text_52">
     <!-- 0.6 -->
     <g transform="translate(720.027524 168.868102) scale(0.1 -0.1)">
      <use xlink:href="#DejaVuSans-30"/>
      <use xlink:href="#DejaVuSans-2e" transform="translate(63.623047 0)"/>
      <use xlink:href="#DejaVuSans-36" transform="translate(95.410156 0)"/>
     </g>
    </g>
   </g>
   <g id="xtick_46">
    <g id="line2d_52">
     <path d="M 708.591842 145.358557 
L 713.039701 146.531447 
" style="fill: none; stroke: #000000; stroke-width: 0.8; stroke-linecap: square"/>
    </g>
    <g id="text_53">
     <!-- 0.8 -->
     <g transform="translate(720.959778 150.903512) scale(0.1 -0.1)">
      <use xlink:href="#DejaVuSans-30"/>
      <use xlink:href="#DejaVuSans-2e" transform="translate(63.623047 0)"/>
      <use xlink:href="#DejaVuSans-38" transform="translate(95.410156 0)"/>
     </g>
    </g>
   </g>
   <g id="xtick_47">
    <g id="line2d_53">
     <path d="M 709.416583 127.153982 
L 713.891892 128.311356 
" style="fill: none; stroke: #000000; stroke-width: 0.8; stroke-linecap: square"/>
    </g>
    <g id="text_54">
     <!-- 1.0 -->
     <g transform="translate(721.903074 132.72614) scale(0.1 -0.1)">
      <use xlink:href="#DejaVuSans-31"/>
      <use xlink:href="#DejaVuSans-2e" transform="translate(63.623047 0)"/>
      <use xlink:href="#DejaVuSans-30" transform="translate(95.410156 0)"/>
     </g>
    </g>
   </g>
   <g id="xtick_48">
    <g id="line2d_54">
     <path d="M 710.251174 108.732024 
L 714.754273 109.873428 
" style="fill: none; stroke: #000000; stroke-width: 0.8; stroke-linecap: square"/>
    </g>
    <g id="text_55">
     <!-- 1.2 -->
     <g transform="translate(722.85761 114.332183) scale(0.1 -0.1)">
      <use xlink:href="#DejaVuSans-31"/>
      <use xlink:href="#DejaVuSans-2e" transform="translate(63.623047 0)"/>
      <use xlink:href="#DejaVuSans-32" transform="translate(95.410156 0)"/>
     </g>
    </g>
   </g>
   <g id="text_56">
    <!-- e₃ -->
    <g transform="translate(743.978683 174.448065) scale(0.1 -0.1)">
     <use xlink:href="#DejaVuSans-65"/>
     <use xlink:href="#DejaVuSans-2083" transform="translate(61.523438 0)"/>
    </g>
   </g>
  </g>
  <g id="axes_2">
   <g id="Line3DCollection_9">
    <path d="M 554.694274 188.126231 
L 484.830415 247.410164 
" clip-path="url(#p6e33894ca1)" style="fill: none; stroke: #2e5da8; stroke-width: 2.4"/>
    <path d="M 554.694274 188.126231 
L 548.946811 194.995131 
" clip-path="url(#p6e33894ca1)" style="fill: none; stroke: #2e5da8; stroke-width: 2.4"/>
    <path d="M 554.694274 188.126231 
L 548.919645 191.031945 
" clip-path="url(#p6e33894ca1)" style="fill: none; stroke: #2e5da8; stroke-width: 2.4"/>
   </g>
   <g id="text_57">
    <!-- angle=90.0°, residual=1.00 -->
    <g transform="translate(417.049159 71.18804) scale(0.1 -0.1)">
     <defs>
      <path id="DejaVuSans-39" d="M 703 97 
L 703 672 
Q 941 559 1184 500 
Q 1428 441 1663 441 
Q 2288 441 2617 861 
Q 2947 1281 2994 2138 
Q 2813 1869 2534 1725 
Q 2256 1581 1919 1581 
Q 1219 1581 811 2004 
Q 403 2428 403 3163 
Q 403 3881 828 4315 
Q 1253 4750 1959 4750 
Q 2769 4750 3195 4129 
Q 3622 3509 3622 2328 
Q 3622 1225 3098 567 
Q 2575 -91 1691 -91 
Q 1453 -91 1209 -44 
Q 966 3 703 97 
z
M 1959 2075 
Q 2384 2075 2632 2365 
Q 2881 2656 2881 3163 
Q 2881 3666 2632 3958 
Q 2384 4250 1959 4250 
Q 1534 4250 1286 3958 
Q 1038 3666 1038 3163 
Q 1038 2656 1286 2365 
Q 1534 2075 1959 2075 
z
" transform="scale(0.015625)"/>
     </defs>
     <use xlink:href="#DejaVuSans-61"/>
     <use xlink:href="#DejaVuSans-6e" transform="translate(61.279297 0)"/>
     <use xlink:href="#DejaVuSans-67" transform="translate(124.658203 0)"/>
     <use xlink:href="#DejaVuSans-6c" transform="translate(188.134766 0)"/>
     <use xlink:href="#DejaVuSans-65" transform="translate(215.917969 0)"/>
     <use xlink:href="#DejaVuSans-3d" transform="translate(277.441406 0)"/>
     <use xlink:href="#DejaVuSans-39" transform="translate(361.230469 0)"/>
     <use xlink:href="#DejaVuSans-30" transform="translate(424.853516 0)"/>
     <use xlink:href="#DejaVuSans-2e" transform="translate(488.476562 0)"/>
     <use xlink:href="#DejaVuSans-30" transform="translate(520.263672 0)"/>
     <use xlink:href="#DejaVuSans-b0" transform="translate(583.886719 0)"/>
     <use xlink:href="#DejaVuSans-2c" transform="translate(633.886719 0)"/>
     <use xlink:href="#DejaVuSans-20" transform="translate(665.673828 0)"/>
     <use xlink:href="#DejaVuSans-72" transform="translate(697.460938 0)"/>
     <use xlink:href="#DejaVuSans-65" transform="translate(736.324219 0)"/>
     <use xlink:href="#DejaVuSans-73" transform="translate(797.847656 0)"/>
     <use xlink:href="#DejaVuSans-69" transform="translate(849.947266 0)"/>
     <use xlink:href="#DejaVuSans-64" transform="translate(877.730469 0)"/>
     <use xlink:href="#DejaVuSans-75" transform="translate(941.207031 0)"/>
     <use xlink:href="#DejaVuSans-61" transform="translate(1004.585938 0)"/>
     <use xlink:href="#DejaVuSans-6c" transform="translate(1065.865234 0)"/>
     <use xlink:href="#DejaVuSans-3d" transform="translate(1093.648438 0)"/>
     <use xlink:href="#DejaVuSans-31" transform="translate(1177.4375 0)"/>
     <use xlink:href="#DejaVuSans-2e" transform="translate(1241.060547 0)"/>
     <use xlink:href="#DejaVuSans-30" transform="translate(1272.847656 0)"/>
     <use xlink:href="#DejaVuSans-30" transform="translate(1336.470703 0)"/>
    </g>
   </g>
   <g id="text_58">
    <!-- D. Same rank, impossible verdict -->
    <g transform="translate(465.964124 32.964542) scale(0.12 -0.12)">
     <defs>
      <path id="DejaVuSans-70" d="M 1159 525 
L 1159 -1331 
L 581 -1331 
L 581 3500 
L 1159 3500 
L 1159 2969 
Q 1341 3281 1617 3432 
Q 1894 3584 2278 3584 
Q 2916 3584 3314 3078 
Q 3713 2572 3713 1747 
Q 3713 922 3314 415 
Q 2916 -91 2278 -91 
Q 1894 -91 1617 61 
Q 1341 213 1159 525 
z
M 3116 1747 
Q 3116 2381 2855 2742 
Q 2594 3103 2138 3103 
Q 1681 3103 1420 2742 
Q 1159 2381 1159 1747 
Q 1159 1113 1420 752 
Q 1681 391 2138 391 
Q 2594 391 2855 752 
Q 3116 1113 3116 1747 
z
" transform="scale(0.015625)"/>
      <path id="DejaVuSans-6f" d="M 1959 3097 
Q 1497 3097 1228 2736 
Q 959 2375 959 1747 
Q 959 1119 1226 758 
Q 1494 397 1959 397 
Q 2419 397 2687 759 
Q 2956 1122 2956 1747 
Q 2956 2369 2687 2733 
Q 2419 3097 1959 3097 
z
M 1959 3584 
Q 2709 3584 3137 3096 
Q 3566 2609 3566 1747 
Q 3566 888 3137 398 
Q 2709 -91 1959 -91 
Q 1206 -91 779 398 
Q 353 888 353 1747 
Q 353 2609 779 3096 
Q 1206 3584 1959 3584 
z
" transform="scale(0.015625)"/>
      <path id="DejaVuSans-62" d="M 3116 1747 
Q 3116 2381 2855 2742 
Q 2594 3103 2138 3103 
Q 1681 3103 1420 2742 
Q 1159 2381 1159 1747 
Q 1159 1113 1420 752 
Q 1681 391 2138 391 
Q 2594 391 2855 752 
Q 3116 1113 3116 1747 
z
M 1159 2969 
Q 1341 3281 1617 3432 
Q 1894 3584 2278 3584 
Q 2916 3584 3314 3078 
Q 3713 2572 3713 1747 
Q 3713 922 3314 415 
Q 2916 -91 2278 -91 
Q 1894 -91 1617 61 
Q 1341 213 1159 525 
L 1159 0 
L 581 0 
L 581 4863 
L 1159 4863 
L 1159 2969 
z
" transform="scale(0.015625)"/>
     </defs>
     <use xlink:href="#DejaVuSans-44"/>
     <use xlink:href="#DejaVuSans-2e" transform="translate(77.001953 0)"/>
     <use xlink:href="#DejaVuSans-20" transform="translate(108.789062 0)"/>
     <use xlink:href="#DejaVuSans-53" transform="translate(140.576172 0)"/>
     <use xlink:href="#DejaVuSans-61" transform="translate(204.052734 0)"/>
     <use xlink:href="#DejaVuSans-6d" transform="translate(265.332031 0)"/>
     <use xlink:href="#DejaVuSans-65" transform="translate(362.744141 0)"/>
     <use xlink:href="#DejaVuSans-20" transform="translate(424.267578 0)"/>
     <use xlink:href="#DejaVuSans-72" transform="translate(456.054688 0)"/>
     <use xlink:href="#DejaVuSans-61" transform="translate(497.167969 0)"/>
     <use xlink:href="#DejaVuSans-6e" transform="translate(558.447266 0)"/>
     <use xlink:href="#DejaVuSans-6b" transform="translate(621.826172 0)"/>
     <use xlink:href="#DejaVuSans-2c" transform="translate(679.736328 0)"/>
     <use xlink:href="#DejaVuSans-20" transform="translate(711.523438 0)"/>
     <use xlink:href="#DejaVuSans-69" transform="translate(743.310547 0)"/>
     <use xlink:href="#DejaVuSans-6d" transform="translate(771.09375 0)"/>
     <use xlink:href="#DejaVuSans-70" transform="translate(868.505859 0)"/>
     <use xlink:href="#DejaVuSans-6f" transform="translate(931.982422 0)"/>
     <use xlink:href="#DejaVuSans-73" transform="translate(993.164062 0)"/>
     <use xlink:href="#DejaVuSans-73" transform="translate(1045.263672 0)"/>
     <use xlink:href="#DejaVuSans-69" transform="translate(1097.363281 0)"/>
     <use xlink:href="#DejaVuSans-62" transform="translate(1125.146484 0)"/>
     <use xlink:href="#DejaVuSans-6c" transform="translate(1188.623047 0)"/>
     <use xlink:href="#DejaVuSans-65" transform="translate(1216.40625 0)"/>
     <use xlink:href="#DejaVuSans-20" transform="translate(1277.929688 0)"/>
     <use xlink:href="#DejaVuSans-76" transform="translate(1309.716797 0)"/>
     <use xlink:href="#DejaVuSans-65" transform="translate(1368.896484 0)"/>
     <use xlink:href="#DejaVuSans-72" transform="translate(1430.419922 0)"/>
     <use xlink:href="#DejaVuSans-64" transform="translate(1469.783203 0)"/>
     <use xlink:href="#DejaVuSans-69" transform="translate(1533.259766 0)"/>
     <use xlink:href="#DejaVuSans-63" transform="translate(1561.042969 0)"/>
     <use xlink:href="#DejaVuSans-74" transform="translate(1616.023438 0)"/>
    </g>
   </g>
   <g id="Line3DCollection_10">
    <path d="M 605.53254 284.958628 
L 484.830415 247.410164 
" clip-path="url(#p6e33894ca1)" style="fill: none; stroke: #1d6f5f; stroke-width: 2.4"/>
    <path d="M 605.53254 284.958628 
L 594.682415 283.680742 
" clip-path="url(#p6e33894ca1)" style="fill: none; stroke: #1d6f5f; stroke-width: 2.4"/>
    <path d="M 605.53254 284.958628 
L 594.718223 279.494062 
" clip-path="url(#p6e33894ca1)" style="fill: none; stroke: #1d6f5f; stroke-width: 2.4"/>
   </g>
  </g>
  <g id="text_59">
   <!-- Same observation rank = 1 for both O₁ and O₂; recoverability differs by alignment. -->
   <g transform="translate(138.847291 15.558281) scale(0.11 -0.11)">
    <defs>
     <path id="DejaVuSans-66" d="M 2375 4863 
L 2375 4384 
L 1825 4384 
Q 1516 4384 1395 4259 
Q 1275 4134 1275 3809 
L 1275 3500 
L 2222 3500 
L 2222 3053 
L 1275 3053 
L 1275 0 
L 697 0 
L 697 3053 
L 147 3053 
L 147 3500 
L 697 3500 
L 697 3744 
Q 697 4328 969 4595 
Q 1241 4863 1831 4863 
L 2375 4863 
z
" transform="scale(0.015625)"/>
     <path id="DejaVuSans-68" d="M 3513 2113 
L 3513 0 
L 2938 0 
L 2938 2094 
Q 2938 2591 2744 2837 
Q 2550 3084 2163 3084 
Q 1697 3084 1428 2787 
Q 1159 2491 1159 1978 
L 1159 0 
L 581 0 
L 581 4863 
L 1159 4863 
L 1159 2956 
Q 1366 3272 1645 3428 
Q 1925 3584 2291 3584 
Q 2894 3584 3203 3211 
Q 3513 2838 3513 2113 
z
" transform="scale(0.015625)"/>
     <path id="DejaVuSans-4f" d="M 2522 4238 
Q 1834 4238 1429 3725 
Q 1025 3213 1025 2328 
Q 1025 1447 1429 934 
Q 1834 422 2522 422 
Q 3209 422 3611 934 
Q 4013 1447 4013 2328 
Q 4013 3213 3611 3725 
Q 3209 4238 2522 4238 
z
M 2522 4750 
Q 3503 4750 4090 4092 
Q 4678 3434 4678 2328 
Q 4678 1225 4090 567 
Q 3503 -91 2522 -91 
Q 1538 -91 948 565 
Q 359 1222 359 2328 
Q 359 3434 948 4092 
Q 1538 4750 2522 4750 
z
" transform="scale(0.015625)"/>
     <path id="DejaVuSans-3b" d="M 750 3309 
L 1409 3309 
L 1409 2516 
L 750 2516 
L 750 3309 
z
M 750 794 
L 1409 794 
L 1409 256 
L 897 -744 
L 494 -744 
L 750 256 
L 750 794 
z
" transform="scale(0.015625)"/>
     <path id="DejaVuSans-79" d="M 2059 -325 
Q 1816 -950 1584 -1140 
Q 1353 -1331 966 -1331 
L 506 -1331 
L 506 -850 
L 844 -850 
Q 1081 -850 1212 -737 
Q 1344 -625 1503 -206 
L 1606 56 
L 191 3500 
L 800 3500 
L 1894 763 
L 2988 3500 
L 3597 3500 
L 2059 -325 
z
" transform="scale(0.015625)"/>
    </defs>
    <use xlink:href="#DejaVuSans-53"/>
    <use xlink:href="#DejaVuSans-61" transform="translate(63.476562 0)"/>
    <use xlink:href="#DejaVuSans-6d" transform="translate(124.755859 0)"/>
    <use xlink:href="#DejaVuSans-65" transform="translate(222.167969 0)"/>
    <use xlink:href="#DejaVuSans-20" transform="translate(283.691406 0)"/>
    <use xlink:href="#DejaVuSans-6f" transform="translate(315.478516 0)"/>
    <use xlink:href="#DejaVuSans-62" transform="translate(376.660156 0)"/>
    <use xlink:href="#DejaVuSans-73" transform="translate(440.136719 0)"/>
    <use xlink:href="#DejaVuSans-65" transform="translate(492.236328 0)"/>
    <use xlink:href="#DejaVuSans-72" transform="translate(553.759766 0)"/>
    <use xlink:href="#DejaVuSans-76" transform="translate(594.873047 0)"/>
    <use xlink:href="#DejaVuSans-61" transform="translate(654.052734 0)"/>
    <use xlink:href="#DejaVuSans-74" transform="translate(715.332031 0)"/>
    <use xlink:href="#DejaVuSans-69" transform="translate(754.541016 0)"/>
    <use xlink:href="#DejaVuSans-6f" transform="translate(782.324219 0)"/>
    <use xlink:href="#DejaVuSans-6e" transform="translate(843.505859 0)"/>
    <use xlink:href="#DejaVuSans-20" transform="translate(906.884766 0)"/>
    <use xlink:href="#DejaVuSans-72" transform="translate(938.671875 0)"/>
    <use xlink:href="#DejaVuSans-61" transform="translate(979.785156 0)"/>
    <use xlink:href="#DejaVuSans-6e" transform="translate(1041.064453 0)"/>
    <use xlink:href="#DejaVuSans-6b" transform="translate(1104.443359 0)"/>
    <use xlink:href="#DejaVuSans-20" transform="translate(1162.353516 0)"/>
    <use xlink:href="#DejaVuSans-3d" transform="translate(1194.140625 0)"/>
    <use xlink:href="#DejaVuSans-20" transform="translate(1277.929688 0)"/>
    <use xlink:href="#DejaVuSans-31" transform="translate(1309.716797 0)"/>
    <use xlink:href="#DejaVuSans-20" transform="translate(1373.339844 0)"/>
    <use xlink:href="#DejaVuSans-66" transform="translate(1405.126953 0)"/>
    <use xlink:href="#DejaVuSans-6f" transform="translate(1440.332031 0)"/>
    <use xlink:href="#DejaVuSans-72" transform="translate(1501.513672 0)"/>
    <use xlink:href="#DejaVuSans-20" transform="translate(1542.626953 0)"/>
    <use xlink:href="#DejaVuSans-62" transform="translate(1574.414062 0)"/>
    <use xlink:href="#DejaVuSans-6f" transform="translate(1637.890625 0)"/>
    <use xlink:href="#DejaVuSans-74" transform="translate(1699.072266 0)"/>
    <use xlink:href="#DejaVuSans-68" transform="translate(1738.28125 0)"/>
    <use xlink:href="#DejaVuSans-20" transform="translate(1801.660156 0)"/>
    <use xlink:href="#DejaVuSans-4f" transform="translate(1833.447266 0)"/>
    <use xlink:href="#DejaVuSans-2081" transform="translate(1912.158203 0)"/>
    <use xlink:href="#DejaVuSans-20" transform="translate(1952.246094 0)"/>
    <use xlink:href="#DejaVuSans-61" transform="translate(1984.033203 0)"/>
    <use xlink:href="#DejaVuSans-6e" transform="translate(2045.3125 0)"/>
    <use xlink:href="#DejaVuSans-64" transform="translate(2108.691406 0)"/>
    <use xlink:href="#DejaVuSans-20" transform="translate(2172.167969 0)"/>
    <use xlink:href="#DejaVuSans-4f" transform="translate(2203.955078 0)"/>
    <use xlink:href="#DejaVuSans-2082" transform="translate(2282.666016 0)"/>
    <use xlink:href="#DejaVuSans-3b" transform="translate(2322.753906 0)"/>
    <use xlink:href="#DejaVuSans-20" transform="translate(2356.445312 0)"/>
    <use xlink:href="#DejaVuSans-72" transform="translate(2388.232422 0)"/>
    <use xlink:href="#DejaVuSans-65" transform="translate(2427.095703 0)"/>
    <use xlink:href="#DejaVuSans-63" transform="translate(2488.619141 0)"/>
    <use xlink:href="#DejaVuSans-6f" transform="translate(2543.599609 0)"/>
    <use xlink:href="#DejaVuSans-76" transform="translate(2604.78125 0)"/>
    <use xlink:href="#DejaVuSans-65" transform="translate(2663.960938 0)"/>
    <use xlink:href="#DejaVuSans-72" transform="translate(2725.484375 0)"/>
    <use xlink:href="#DejaVuSans-61" transform="translate(2766.597656 0)"/>
    <use xlink:href="#DejaVuSans-62" transform="translate(2827.876953 0)"/>
    <use xlink:href="#DejaVuSans-69" transform="translate(2891.353516 0)"/>
    <use xlink:href="#DejaVuSans-6c" transform="translate(2919.136719 0)"/>
    <use xlink:href="#DejaVuSans-69" transform="translate(2946.919922 0)"/>
    <use xlink:href="#DejaVuSans-74" transform="translate(2974.703125 0)"/>
    <use xlink:href="#DejaVuSans-79" transform="translate(3013.912109 0)"/>
    <use xlink:href="#DejaVuSans-20" transform="translate(3073.091797 0)"/>
    <use xlink:href="#DejaVuSans-64" transform="translate(3104.878906 0)"/>
    <use xlink:href="#DejaVuSans-69" transform="translate(3168.355469 0)"/>
    <use xlink:href="#DejaVuSans-66" transform="translate(3196.138672 0)"/>
    <use xlink:href="#DejaVuSans-66" transform="translate(3231.34375 0)"/>
    <use xlink:href="#DejaVuSans-65" transform="translate(3266.548828 0)"/>
    <use xlink:href="#DejaVuSans-72" transform="translate(3328.072266 0)"/>
    <use xlink:href="#DejaVuSans-73" transform="translate(3369.185547 0)"/>
    <use xlink:href="#DejaVuSans-20" transform="translate(3421.285156 0)"/>
    <use xlink:href="#DejaVuSans-62" transform="translate(3453.072266 0)"/>
    <use xlink:href="#DejaVuSans-79" transform="translate(3516.548828 0)"/>
    <use xlink:href="#DejaVuSans-20" transform="translate(3575.728516 0)"/>
    <use xlink:href="#DejaVuSans-61" transform="translate(3607.515625 0)"/>
    <use xlink:href="#DejaVuSans-6c" transform="translate(3668.794922 0)"/>
    <use xlink:href="#DejaVuSans-69" transform="translate(3696.578125 0)"/>
    <use xlink:href="#DejaVuSans-67" transform="translate(3724.361328 0)"/>
    <use xlink:href="#DejaVuSans-6e" transform="translate(3787.837891 0)"/>
    <use xlink:href="#DejaVuSans-6d" transform="translate(3851.216797 0)"/>
    <use xlink:href="#DejaVuSans-65" transform="translate(3948.628906 0)"/>
    <use xlink:href="#DejaVuSans-6e" transform="translate(4010.152344 0)"/>
    <use xlink:href="#DejaVuSans-74" transform="translate(4073.53125 0)"/>
    <use xlink:href="#DejaVuSans-2e" transform="translate(4112.740234 0)"/>
   </g>
  </g>
 </g>
 <defs>
  <clipPath id="p8db51af991">
   <rect x="7.2" y="38.964542" width="322.234977" height="322.234978"/>
  </clipPath>
  <clipPath id="p6e33894ca1">
   <rect x="404.15976" y="38.964542" width="322.234978" height="322.234978"/>
  </clipPath>
 </defs>
</svg>
