<svg xmlns="http://www.w3.org/2000/svg" width="760" height="420" viewBox="0 0 760 420"><rect width="100%" height="100%" fill="#fffdf8" rx="18"/><text x="72" y="28" font-family="Source Sans 3, sans-serif" font-size="22" font-weight="700" fill="#1c1d21">Collapse-modulus benchmark</text><line x1="72" x2="736" y1="356.00" y2="356.00" stroke="#e6ded2"/><text x="62" y="360.00" text-anchor="end" font-size="12" fill="#5c605d">0.00</text><line x1="72" x2="736" y1="279.00" y2="279.00" stroke="#e6ded2"/><text x="62" y="283.00" text-anchor="end" font-size="12" fill="#5c605d">0.50</text><line x1="72" x2="736" y1="202.00" y2="202.00" stroke="#e6ded2"/><text x="62" y="206.00" text-anchor="end" font-size="12" fill="#5c605d">1.00</text><line x1="72" x2="736" y1="125.00" y2="125.00" stroke="#e6ded2"/><text x="62" y="129.00" text-anchor="end" font-size="12" fill="#5c605d">1.50</text><line x1="72" x2="736" y1="48.00" y2="48.00" stroke="#e6ded2"/><text x="62" y="52.00" text-anchor="end" font-size="12" fill="#5c605d">2.00</text><line x1="72.00" x2="72.00" y1="48" y2="356" stroke="#f0e7db"/><text x="72.00" y="380" text-anchor="middle" font-size="12" fill="#5c605d">0.00</text><line x1="238.00" x2="238.00" y1="48" y2="356" stroke="#f0e7db"/><text x="238.00" y="380" text-anchor="middle" font-size="12" fill="#5c605d">0.25</text><line x1="404.00" x2="404.00" y1="48" y2="356" stroke="#f0e7db"/><text x="404.00" y="380" text-anchor="middle" font-size="12" fill="#5c605d">0.50</text><line x1="570.00" x2="570.00" y1="48" y2="356" stroke="#f0e7db"/><text x="570.00" y="380" text-anchor="middle" font-size="12" fill="#5c605d">0.75</text><line x1="736.00" x2="736.00" y1="48" y2="356" stroke="#f0e7db"/><text x="736.00" y="380" text-anchor="middle" font-size="12" fill="#5c605d">1.00</text><line x1="72" x2="72" y1="48" y2="356" stroke="#1c1d21"/><line x1="72" x2="736" y1="356" y2="356" stroke="#1c1d21"/><polyline fill="none" stroke="#8d5428" stroke-width="3" points="72.00,48.00 85.55,48.00 99.10,48.00 112.65,48.00 126.20,48.00 139.76,48.00 153.31,48.00 166.86,48.00 180.41,48.00 193.96,48.00 207.51,48.00 221.06,48.00 234.61,48.00 248.16,48.00 261.71,48.00 275.27,48.00 288.82,48.00 302.37,48.00 315.92,48.00 329.47,48.00 343.02,48.00 356.57,48.00 370.12,48.00 383.67,48.00 397.22,48.00 410.78,48.00 424.33,48.00 437.88,48.00 451.43,48.00 464.98,48.00 478.53,48.00 492.08,48.00 505.63,48.00 519.18,48.00 532.73,48.00 546.29,48.00 559.84,48.00 573.39,48.00 586.94,48.00 600.49,48.00 614.04,48.00 627.59,48.00 641.14,48.00 654.69,48.00 668.24,48.00 681.80,48.00 695.35,48.00 708.90,48.00 722.45,48.00 736.00,48.00"/><polyline fill="none" stroke="#2a6f97" stroke-width="3" points="72.00,356.00 85.55,324.57 99.10,293.14 112.65,261.71 126.20,230.29 139.76,198.86 153.31,167.43 166.86,136.00 180.41,104.57 193.96,73.14 207.51,48.00 221.06,48.00 234.61,48.00 248.16,48.00 261.71,48.00 275.27,48.00 288.82,48.00 302.37,48.00 315.92,48.00 329.47,48.00 343.02,48.00 356.57,48.00 370.12,48.00 383.67,48.00 397.22,48.00 410.78,48.00 424.33,48.00 437.88,48.00 451.43,48.00 464.98,48.00 478.53,48.00 492.08,48.00 505.63,48.00 519.18,48.00 532.73,48.00 546.29,48.00 559.84,48.00 573.39,48.00 586.94,48.00 600.49,48.00 614.04,48.00 627.59,48.00 641.14,48.00 654.69,48.00 668.24,48.00 681.80,48.00 695.35,48.00 708.90,48.00 722.45,48.00 736.00,48.00"/><polyline fill="none" stroke="#356c4a" stroke-width="3" points="72.00,356.00 85.55,343.43 99.10,330.86 112.65,318.29 126.20,305.71 139.76,293.14 153.31,280.57 166.86,268.00 180.41,255.43 193.96,242.86 207.51,230.29 221.06,217.71 234.61,205.14 248.16,192.57 261.71,180.00 275.27,167.43 288.82,154.86 302.37,142.29 315.92,129.71 329.47,117.14 343.02,104.57 356.57,92.00 370.12,79.43 383.67,66.86 397.22,54.29 410.78,48.00 424.33,48.00 437.88,48.00 451.43,48.00 464.98,48.00 478.53,48.00 492.08,48.00 505.63,48.00 519.18,48.00 532.73,48.00 546.29,48.00 559.84,48.00 573.39,48.00 586.94,48.00 600.49,48.00 614.04,48.00 627.59,48.00 641.14,48.00 654.69,48.00 668.24,48.00 681.80,48.00 695.35,48.00 708.90,48.00 722.45,48.00 736.00,48.00"/><polyline fill="none" stroke="#a63229" stroke-width="3" points="72.00,356.00 85.55,349.71 99.10,343.43 112.65,337.14 126.20,330.86 139.76,324.57 153.31,318.29 166.86,312.00 180.41,305.71 193.96,299.43 207.51,293.14 221.06,286.86 234.61,280.57 248.16,274.29 261.71,268.00 275.27,261.71 288.82,255.43 302.37,249.14 315.92,242.86 329.47,236.57 343.02,230.29 356.57,224.00 370.12,217.71 383.67,211.43 397.22,205.14 410.78,198.86 424.33,192.57 437.88,186.29 451.43,180.00 464.98,173.71 478.53,167.43 492.08,161.14 505.63,154.86 519.18,148.57 532.73,142.29 546.29,136.00 559.84,129.71 573.39,123.43 586.94,117.14 600.49,110.86 614.04,104.57 627.59,98.29 641.14,92.00 654.69,85.71 668.24,79.43 681.80,73.14 695.35,66.86 708.90,60.57 722.45,54.29 736.00,48.00"/><line x1="556" x2="576" y1="58" y2="58" stroke="#8d5428" stroke-width="3"/><text x="584" y="62" font-size="12" fill="#1c1d21">ε = 0.00</text><line x1="556" x2="576" y1="80" y2="80" stroke="#2a6f97" stroke-width="3"/><text x="584" y="84" font-size="12" fill="#1c1d21">ε = 0.10</text><line x1="556" x2="576" y1="102" y2="102" stroke="#356c4a" stroke-width="3"/><text x="584" y="106" font-size="12" fill="#1c1d21">ε = 0.25</text><line x1="556" x2="576" y1="124" y2="124" stroke="#a63229" stroke-width="3"/><text x="584" y="128" font-size="12" fill="#1c1d21">ε = 0.50</text><text x="380.00" y="406" text-anchor="middle" font-size="13" fill="#5c605d">δ</text><text x="20" y="210.00" transform="rotate(-90 20 210.00)" text-anchor="middle" font-size="13" fill="#5c605d">κ(δ)</text></svg>