<svg xmlns="http://www.w3.org/2000/svg" width="760" height="420" viewBox="0 0 760 420"><rect width="100%" height="100%" fill="#fffdf8" rx="18"/><text x="72" y="28" font-family="Source Sans 3, sans-serif" font-size="22" font-weight="700" fill="#1c1d21">Diagonal polynomial threshold stress test</text><line x1="72" x2="736" y1="356.00" y2="356.00" stroke="#e6ded2"/><text x="62" y="360.00" text-anchor="end" font-size="12" fill="#5c605d">0.00</text><line x1="72" x2="736" y1="279.00" y2="279.00" stroke="#e6ded2"/><text x="62" y="283.00" text-anchor="end" font-size="12" fill="#5c605d">0.22</text><line x1="72" x2="736" y1="202.00" y2="202.00" stroke="#e6ded2"/><text x="62" y="206.00" text-anchor="end" font-size="12" fill="#5c605d">0.44</text><line x1="72" x2="736" y1="125.00" y2="125.00" stroke="#e6ded2"/><text x="62" y="129.00" text-anchor="end" font-size="12" fill="#5c605d">0.66</text><line x1="72" x2="736" y1="48.00" y2="48.00" stroke="#e6ded2"/><text x="62" y="52.00" text-anchor="end" font-size="12" fill="#5c605d">0.88</text><line x1="72.00" x2="72.00" y1="48" y2="356" stroke="#f0e7db"/><text x="72.00" y="380" text-anchor="middle" font-size="12" fill="#5c605d">1.00</text><line x1="238.00" x2="238.00" y1="48" y2="356" stroke="#f0e7db"/><text x="238.00" y="380" text-anchor="middle" font-size="12" fill="#5c605d">2.00</text><line x1="404.00" x2="404.00" y1="48" y2="356" stroke="#f0e7db"/><text x="404.00" y="380" text-anchor="middle" font-size="12" fill="#5c605d">3.00</text><line x1="570.00" x2="570.00" y1="48" y2="356" stroke="#f0e7db"/><text x="570.00" y="380" text-anchor="middle" font-size="12" fill="#5c605d">4.00</text><line x1="736.00" x2="736.00" y1="48" y2="356" stroke="#f0e7db"/><text x="736.00" y="380" text-anchor="middle" font-size="12" fill="#5c605d">5.00</text><line x1="72" x2="72" y1="48" y2="356" stroke="#1c1d21"/><line x1="72" x2="736" y1="356" y2="356" stroke="#1c1d21"/><polyline fill="none" stroke="#8d5428" stroke-width="3" points="72.00,356.00 238.00,356.00 404.00,356.00 570.00,356.00 736.00,356.00"/><polyline fill="none" stroke="#2a6f97" stroke-width="3" points="72.00,151.71 238.00,356.00 404.00,356.00 570.00,356.00 736.00,356.00"/><polyline fill="none" stroke="#356c4a" stroke-width="3" points="72.00,197.11 238.00,344.25 404.00,356.00 570.00,356.00 736.00,356.00"/><polyline fill="none" stroke="#a63229" stroke-width="3" points="72.00,48.00 238.00,325.08 404.00,354.81 570.00,356.00 736.00,356.00"/><line x1="556" x2="576" y1="58" y2="58" stroke="#8d5428" stroke-width="3"/><text x="584" y="62" font-size="12" fill="#1c1d21">degree 0 constant</text><line x1="556" x2="576" y1="80" y2="80" stroke="#2a6f97" stroke-width="3"/><text x="584" y="84" font-size="12" fill="#1c1d21">degree 1 affine</text><line x1="556" x2="576" y1="102" y2="102" stroke="#356c4a" stroke-width="3"/><text x="584" y="106" font-size="12" fill="#1c1d21">degree 2 quadratic</text><line x1="556" x2="576" y1="124" y2="124" stroke="#a63229" stroke-width="3"/><text x="584" y="128" font-size="12" fill="#1c1d21">degree 3 cubic</text><text x="380.00" y="406" text-anchor="middle" font-size="13" fill="#5c605d">record horizon</text><text x="20" y="210.00" transform="rotate(-90 20 210.00)" text-anchor="middle" font-size="13" fill="#5c605d">box collision gap</text></svg>