<svg xmlns="http://www.w3.org/2000/svg" width="760" height="420" viewBox="0 0 760 420"><rect width="100%" height="100%" fill="#fffdf8" rx="18"/><text x="72" y="28" font-family="Source Sans 3, sans-serif" font-size="22" font-weight="700" fill="#1c1d21">Observer convergence for protected variable</text><line x1="72" x2="736" y1="356.00" y2="356.00" stroke="#e6ded2"/><text x="62" y="360.00" text-anchor="end" font-size="12" fill="#5c605d">0.00</text><line x1="72" x2="736" y1="279.00" y2="279.00" stroke="#e6ded2"/><text x="62" y="283.00" text-anchor="end" font-size="12" fill="#5c605d">0.67</text><line x1="72" x2="736" y1="202.00" y2="202.00" stroke="#e6ded2"/><text x="62" y="206.00" text-anchor="end" font-size="12" fill="#5c605d">1.34</text><line x1="72" x2="736" y1="125.00" y2="125.00" stroke="#e6ded2"/><text x="62" y="129.00" text-anchor="end" font-size="12" fill="#5c605d">2.00</text><line x1="72" x2="736" y1="48.00" y2="48.00" stroke="#e6ded2"/><text x="62" y="52.00" text-anchor="end" font-size="12" fill="#5c605d">2.67</text><line x1="72.00" x2="72.00" y1="48" y2="356" stroke="#f0e7db"/><text x="72.00" y="380" text-anchor="middle" font-size="12" fill="#5c605d">0.00</text><line x1="238.00" x2="238.00" y1="48" y2="356" stroke="#f0e7db"/><text x="238.00" y="380" text-anchor="middle" font-size="12" fill="#5c605d">4.50</text><line x1="404.00" x2="404.00" y1="48" y2="356" stroke="#f0e7db"/><text x="404.00" y="380" text-anchor="middle" font-size="12" fill="#5c605d">9.00</text><line x1="570.00" x2="570.00" y1="48" y2="356" stroke="#f0e7db"/><text x="570.00" y="380" text-anchor="middle" font-size="12" fill="#5c605d">13.50</text><line x1="736.00" x2="736.00" y1="48" y2="356" stroke="#f0e7db"/><text x="736.00" y="380" text-anchor="middle" font-size="12" fill="#5c605d">18.00</text><line x1="72" x2="72" y1="48" y2="356" stroke="#1c1d21"/><line x1="72" x2="736" y1="356" y2="356" stroke="#1c1d21"/><polyline fill="none" stroke="#8d5428" stroke-width="3" points="72.00,206.18 108.89,48.00 145.78,193.01 182.67,292.99 219.56,334.27 256.44,348.92 293.33,353.76 330.22,355.31 367.11,355.79 404.00,355.94 440.89,355.98 477.78,355.99 514.67,356.00 551.56,356.00 588.44,356.00 625.33,356.00 662.22,356.00 699.11,356.00 736.00,356.00"/><line x1="556" x2="576" y1="58" y2="58" stroke="#8d5428" stroke-width="3"/><text x="584" y="62" font-size="12" fill="#1c1d21">protected-variable observer error</text><text x="380.00" y="406" text-anchor="middle" font-size="13" fill="#5c605d">step</text><text x="20" y="210.00" transform="rotate(-90 20 210.00)" text-anchor="middle" font-size="13" fill="#5c605d">|error in protected variable|</text></svg>