<svg xmlns="http://www.w3.org/2000/svg" width="760" height="420" viewBox="0 0 760 420"><rect width="100%" height="100%" fill="#fffdf8" rx="18"/><text x="72" y="28" font-family="Source Sans 3, sans-serif" font-size="22" font-weight="700" fill="#1c1d21">PVRT restricted-linear stability envelope</text><line x1="72" x2="736" y1="356.00" y2="356.00" stroke="#e6ded2"/><text x="62" y="360.00" text-anchor="end" font-size="12" fill="#5c605d">0.00</text><line x1="72" x2="736" y1="279.00" y2="279.00" stroke="#e6ded2"/><text x="62" y="283.00" text-anchor="end" font-size="12" fill="#5c605d">1.12</text><line x1="72" x2="736" y1="202.00" y2="202.00" stroke="#e6ded2"/><text x="62" y="206.00" text-anchor="end" font-size="12" fill="#5c605d">2.24</text><line x1="72" x2="736" y1="125.00" y2="125.00" stroke="#e6ded2"/><text x="62" y="129.00" text-anchor="end" font-size="12" fill="#5c605d">3.35</text><line x1="72" x2="736" y1="48.00" y2="48.00" stroke="#e6ded2"/><text x="62" y="52.00" text-anchor="end" font-size="12" fill="#5c605d">4.47</text><line x1="72.00" x2="72.00" y1="48" y2="356" stroke="#f0e7db"/><text x="72.00" y="380" text-anchor="middle" font-size="12" fill="#5c605d">0.00</text><line x1="238.00" x2="238.00" y1="48" y2="356" stroke="#f0e7db"/><text x="238.00" y="380" text-anchor="middle" font-size="12" fill="#5c605d">1.00</text><line x1="404.00" x2="404.00" y1="48" y2="356" stroke="#f0e7db"/><text x="404.00" y="380" text-anchor="middle" font-size="12" fill="#5c605d">2.00</text><line x1="570.00" x2="570.00" y1="48" y2="356" stroke="#f0e7db"/><text x="570.00" y="380" text-anchor="middle" font-size="12" fill="#5c605d">3.00</text><line x1="736.00" x2="736.00" y1="48" y2="356" stroke="#f0e7db"/><text x="736.00" y="380" text-anchor="middle" font-size="12" fill="#5c605d">4.00</text><line x1="72" x2="72" y1="48" y2="356" stroke="#1c1d21"/><line x1="72" x2="736" y1="356" y2="356" stroke="#1c1d21"/><polyline fill="none" stroke="#8d5428" stroke-width="3" points="72.00,356.00 99.67,356.00 127.33,356.00 155.00,321.56 182.67,321.56 210.33,304.35 238.00,287.13 265.67,269.91 293.33,269.91 321.00,252.69 348.67,235.48 376.33,218.26 404.00,218.26 431.67,201.04 459.33,183.82 487.00,166.61 514.67,166.61 542.33,149.39 570.00,149.39 597.67,149.39 625.33,149.39 653.00,149.39 680.67,149.39 708.33,149.39 736.00,149.39"/><polyline fill="none" stroke="#2a6f97" stroke-width="3" points="72.00,356.00 99.67,343.17 127.33,330.33 155.00,317.50 182.67,304.67 210.33,291.83 238.00,279.00 265.67,266.17 293.33,253.33 321.00,240.50 348.67,227.67 376.33,214.83 404.00,202.00 431.67,189.17 459.33,176.33 487.00,163.50 514.67,150.67 542.33,137.83 570.00,125.00 597.67,112.17 625.33,99.33 653.00,86.50 680.67,73.67 708.33,60.83 736.00,48.00"/><line x1="556" x2="576" y1="58" y2="58" stroke="#8d5428" stroke-width="3"/><text x="584" y="62" font-size="12" fill="#1c1d21">empirical κ(δ)</text><line x1="556" x2="576" y1="80" y2="80" stroke="#2a6f97" stroke-width="3"/><text x="584" y="84" font-size="12" fill="#1c1d21">theorem upper bound</text><text x="380.00" y="406" text-anchor="middle" font-size="13" fill="#5c605d">δ</text><text x="20" y="210.00" transform="rotate(-90 20 210.00)" text-anchor="middle" font-size="13" fill="#5c605d">protected-variable ambiguity</text></svg>